<?xml version="1.0" encoding="UTF-8" standalone="no"?>
<svg
   xmlns:dc="http://purl.org/dc/elements/1.1/"
   xmlns:cc="http://creativecommons.org/ns#"
   xmlns:rdf="http://www.w3.org/1999/02/22-rdf-syntax-ns#"
   xmlns:svg="http://www.w3.org/2000/svg"
   xmlns="http://www.w3.org/2000/svg"
   viewBox="0 0 573.328 674.66266"
   height="674.66266"
   width="573.328"
   xml:space="preserve"
   id="svg2"
   version="1.1"><metadata
     id="metadata8"><rdf:RDF><cc:Work
         rdf:about=""><dc:format>image/svg+xml</dc:format><dc:type
           rdf:resource="http://purl.org/dc/dcmitype/StillImage" /></cc:Work></rdf:RDF></metadata><defs
     id="defs6"><clipPath
       id="clipPath18"
       clipPathUnits="userSpaceOnUse"><path
         id="path16"
         d="M 0,505.997 H 429.996 V 0 H 0 Z" /></clipPath></defs><g
     transform="matrix(1.3333333,0,0,-1.3333333,0,674.66267)"
     id="g10"><g
       id="g12"><g
         clip-path="url(#clipPath18)"
         id="g14"><g
           transform="translate(218.2637,24.5981)"
           id="g20"><path
             id="path22"
             style="fill:#000000;fill-opacity:1;fill-rule:nonzero;stroke:none"
             d="m 0,0 c -0.476,-0.16 -0.921,-0.281 -1.355,-0.367 -0.631,-0.125 -1.266,-0.187 -1.899,-0.187 -0.641,0 -1.28,0.063 -1.916,0.19 -0.467,0.094 -0.911,0.214 -1.331,0.357 -85.339,29.758 -139.78,79.399 -166.449,151.767 -23.232,63.037 -21.92,131.91 -20.763,192.676 l 0.008,0.349 c 0.236,5.242 0.391,10.652 0.476,16.602 0.211,14.107 11.44,25.771 25.563,26.558 32.961,1.839 61.899,8.201 88.467,19.447 26.51,11.22 50.057,27.043 71.988,48.372 l 0.156,0.141 c 2.243,1.895 5.366,1.891 7.598,-0.006 l 0.148,-0.135 c 21.935,-21.329 45.482,-37.152 71.989,-48.372 26.567,-11.246 55.506,-17.608 88.469,-19.447 14.126,-0.787 25.353,-12.454 25.56,-26.561 0.09,-6.025 0.246,-11.433 0.478,-16.533 1.155,-60.872 2.461,-129.776 -20.863,-193.014 C 139.635,79.473 85.229,29.807 0,0 m 127.746,48.256 c 26.971,26.342 47.54,58.392 61.137,95.263 24.887,67.473 23.478,141.993 22.343,201.875 l -0.015,0.367 c -0.22,4.852 -0.371,10.086 -0.463,15.982 -0.394,26.666 -21.594,48.72 -48.261,50.211 -59.631,3.328 -105.783,22.791 -145.243,61.253 l -0.307,0.293 c -5.742,5.264 -12.958,7.898 -20.181,7.898 -7.236,0 -14.479,-2.644 -20.255,-7.938 l -0.289,-0.276 c -39.435,-38.437 -85.587,-57.902 -145.219,-61.234 -26.668,-1.487 -47.867,-23.542 -48.262,-50.209 -0.085,-5.729 -0.237,-10.961 -0.463,-15.997 l -0.021,-0.867 c -1.14,-59.754 -2.558,-134.145 22.241,-201.43 13.585,-36.861 34.154,-68.904 61.136,-95.238 30.778,-30.035 71.131,-53.894 119.939,-70.911 1.469,-0.513 3.003,-0.931 4.563,-1.243 4.371,-0.871 8.869,-0.87 13.229,0.001 1.561,0.312 3.102,0.732 4.579,1.249 48.753,17.049 89.063,40.921 119.812,70.951" /></g><g
           transform="translate(214.9957,152.4341)"
           id="g24"><path
             id="path26"
             style="fill:#000000;fill-opacity:1;fill-rule:nonzero;stroke:none"
             d="m 0,0 c -55.446,0 -100.555,45.108 -100.555,100.555 0,55.446 45.109,100.554 100.555,100.554 55.444,0 100.551,-45.108 100.551,-100.554 C 100.551,45.108 55.444,0 0,0 m 0,225.152 c -68.704,0 -124.598,-55.894 -124.598,-124.597 0,-68.705 55.894,-124.602 124.598,-124.602 68.704,0 124.598,55.897 124.598,124.602 0,68.703 -55.894,124.597 -124.598,124.597" /></g><g
           transform="translate(225.1358,255.9277)"
           id="g28"><path
             id="path30"
             style="fill:#000000;fill-opacity:1;fill-rule:nonzero;stroke:none"
             d="M 0,0 H -27.483 V 41.449 H 0 c 11.358,0 20.725,-9.162 20.725,-20.725 C 20.725,9.297 11.428,0 0,0 m 0,54.069 h -33.793 c -3.485,0 -6.31,-2.825 -6.31,-6.31 V 0 h -7.208 c -3.484,0 -6.309,-2.825 -6.309,-6.31 0,-3.484 2.825,-6.31 6.309,-6.31 h 7.208 v -14.415 h -7.208 c -3.484,0 -6.309,-2.825 -6.309,-6.309 0,-3.486 2.825,-6.311 6.309,-6.311 h 7.208 v -13.966 c 0,-3.484 2.825,-6.309 6.31,-6.309 3.484,0 6.31,2.825 6.31,6.309 v 13.966 H 0 c 3.484,0 6.31,2.825 6.31,6.311 0,3.484 -2.826,6.309 -6.31,6.309 H -27.483 V -12.62 H 0 c 18.387,0 33.345,14.958 33.345,33.345 C 33.344,39.565 17.997,54.069 0,54.069" /></g><g
           transform="translate(225.1358,255.9277)"
           id="g32"><path
             id="path34"
             style="fill:none;stroke:#1d1d1b;stroke-width:4;stroke-linecap:butt;stroke-linejoin:miter;stroke-miterlimit:10;stroke-dasharray:none;stroke-opacity:1"
             d="M 0,0 H -27.483 V 41.449 H 0 c 11.358,0 20.725,-9.162 20.725,-20.725 C 20.725,9.297 11.428,0 0,0 Z m 0,54.069 h -33.793 c -3.485,0 -6.31,-2.825 -6.31,-6.31 V 0 h -7.208 c -3.484,0 -6.309,-2.825 -6.309,-6.31 0,-3.484 2.825,-6.31 6.309,-6.31 h 7.208 v -14.415 h -7.208 c -3.484,0 -6.309,-2.825 -6.309,-6.309 0,-3.486 2.825,-6.311 6.309,-6.311 h 7.208 v -13.966 c 0,-3.484 2.825,-6.309 6.31,-6.309 3.484,0 6.31,2.825 6.31,6.309 v 13.966 H 0 c 3.484,0 6.31,2.825 6.31,6.311 0,3.484 -2.826,6.309 -6.31,6.309 H -27.483 V -12.62 H 0 c 18.387,0 33.345,14.958 33.345,33.345 C 33.344,39.565 17.997,54.069 0,54.069 Z" /></g></g></g></g></svg>