<?xml version="1.0" encoding="UTF-8" standalone="no"?>
<svg
   xmlns:dc="http://purl.org/dc/elements/1.1/"
   xmlns:cc="http://creativecommons.org/ns#"
   xmlns:rdf="http://www.w3.org/1999/02/22-rdf-syntax-ns#"
   xmlns:svg="http://www.w3.org/2000/svg"
   xmlns="http://www.w3.org/2000/svg"
   viewBox="0 0 512 515.12402"
   height="515.12402"
   width="512"
   xml:space="preserve"
   id="svg2"
   version="1.1"><metadata
     id="metadata8"><rdf:RDF><cc:Work
         rdf:about=""><dc:format>image/svg+xml</dc:format><dc:type
           rdf:resource="http://purl.org/dc/dcmitype/StillImage" /></cc:Work></rdf:RDF></metadata><defs
     id="defs6"><clipPath
       id="clipPath18"
       clipPathUnits="userSpaceOnUse"><path
         id="path16"
         d="M 0,386.343 H 384 V 0 H 0 Z" /></clipPath></defs><g
     transform="matrix(1.3333333,0,0,-1.3333333,0,515.124)"
     id="g10"><g
       id="g12"><g
         clip-path="url(#clipPath18)"
         id="g14"><g
           transform="translate(80.0001,296.0002)"
           id="g20"><path
             id="path22"
             style="fill:#000000;fill-opacity:1;fill-rule:nonzero;stroke:none"
             d="M 0,0 H -64 V 64 H -3.312 L -32,35.312 -36.688,40 c -3.124,3.124 -8.188,3.124 -11.312,0 v 0 c -3.124,-3.124 -3.124,-8.188 0,-11.312 l 10.344,-10.344 c 3.124,-3.123 8.188,-3.123 11.312,0 L 0,44.688 Z M 20.688,88 11.68,78.992 C 10.556,79.629 9.291,79.975 8,80 h -80 c -4.418,0 -8,-3.582 -8,-8 V -8 c 0,-4.418 3.582,-8 8,-8 H 8 c 4.418,0 8,3.582 8,8 v 68.688 l 16,16 c 3.124,3.124 3.124,8.188 0,11.312 -3.124,3.124 -8.188,3.124 -11.312,0" /></g><g
           transform="translate(80.0001,151.9998)"
           id="g24"><path
             id="path26"
             style="fill:#000000;fill-opacity:1;fill-rule:nonzero;stroke:none"
             d="M 0,0 H -64 V 64 H -3.312 L -32,35.313 -36.688,40 c -3.124,3.124 -8.188,3.124 -11.312,0 -3.124,-3.123 -3.124,-8.188 0,-11.312 l 10.344,-10.343 c 3.124,-3.123 8.188,-3.123 11.312,0 L 0,44.688 Z M 20.688,88 11.68,78.992 C 10.556,79.629 9.291,79.975 8,80 h -80 c -4.418,0 -8,-3.582 -8,-8 V -8 c 0,-4.418 3.582,-8 8,-8 H 8 c 4.418,0 8,3.582 8,8 v 68.688 l 16,16 c 3.124,3.124 3.124,8.188 0,11.312 -3.124,3.124 -8.188,3.124 -11.312,0" /></g><g
           transform="translate(80.0001,15.9998)"
           id="g28"><path
             id="path30"
             style="fill:#000000;fill-opacity:1;fill-rule:nonzero;stroke:none"
             d="M 0,0 H -64 V 64 H -3.312 L -32,35.313 -36.688,40 c -3.124,3.124 -8.188,3.124 -11.312,0 -3.124,-3.123 -3.124,-8.188 0,-11.312 l 10.344,-10.344 c 3.124,-3.122 8.188,-3.122 11.312,0 L 0,44.688 Z M 20.688,88 11.68,78.992 C 10.556,79.629 9.291,79.976 8,80 h -80 c -4.418,0 -8,-3.581 -8,-8 V -8 c 0,-4.418 3.582,-8 8,-8 H 8 c 4.418,0 8,3.582 8,8 v 68.688 l 16,16 c 3.124,3.124 3.124,8.189 0,11.312 -3.124,3.124 -8.188,3.124 -11.312,0" /></g><g
           transform="translate(160.0001,312.0002)"
           id="g32"><path
             id="path34"
             style="fill:#000000;fill-opacity:1;fill-rule:nonzero;stroke:none"
             d="m 0,0 h 216 c 4.418,0 8,-3.582 8,-8 v 0 c 0,-4.418 -3.582,-8 -8,-8 H 0 c -4.418,0 -8,3.582 -8,8 v 0 c 0,4.418 3.582,8 8,8" /></g><g
           transform="translate(160.0001,360.0002)"
           id="g36"><path
             id="path38"
             style="fill:#000000;fill-opacity:1;fill-rule:nonzero;stroke:none"
             d="m 0,0 h 216 c 4.418,0 8,-3.582 8,-8 v 0 c 0,-4.418 -3.582,-8 -8,-8 H 0 c -4.418,0 -8,3.582 -8,8 v 0 c 0,4.418 3.582,8 8,8" /></g><g
           transform="translate(160.0001,167.9998)"
           id="g40"><path
             id="path42"
             style="fill:#000000;fill-opacity:1;fill-rule:nonzero;stroke:none"
             d="m 0,0 h 216 c 4.418,0 8,-3.581 8,-8 0,-4.418 -3.582,-8 -8,-8 H 0 c -4.418,0 -8,3.582 -8,8 0,4.419 3.582,8 8,8" /></g><g
           transform="translate(160.0001,215.9998)"
           id="g44"><path
             id="path46"
             style="fill:#000000;fill-opacity:1;fill-rule:nonzero;stroke:none"
             d="m 0,0 h 216 c 4.418,0 8,-3.582 8,-8 v 0 c 0,-4.418 -3.582,-8 -8,-8 H 0 c -4.418,0 -8,3.582 -8,8 v 0 c 0,4.418 3.582,8 8,8" /></g><g
           transform="translate(160.0001,31.9998)"
           id="g48"><path
             id="path50"
             style="fill:#000000;fill-opacity:1;fill-rule:nonzero;stroke:none"
             d="m 0,0 h 216 c 4.418,0 8,-3.581 8,-8 0,-4.418 -3.582,-8 -8,-8 H 0 c -4.418,0 -8,3.582 -8,8 0,4.419 3.582,8 8,8" /></g><g
           transform="translate(160.0001,79.9998)"
           id="g52"><path
             id="path54"
             style="fill:#000000;fill-opacity:1;fill-rule:nonzero;stroke:none"
             d="m 0,0 h 216 c 4.418,0 8,-3.581 8,-8 0,-4.418 -3.582,-8 -8,-8 H 0 c -4.418,0 -8,3.582 -8,8 0,4.419 3.582,8 8,8" /></g></g></g></g></svg>