<?xml version="1.0" encoding="UTF-8" standalone="no"?>
<svg
   xmlns:dc="http://purl.org/dc/elements/1.1/"
   xmlns:cc="http://creativecommons.org/ns#"
   xmlns:rdf="http://www.w3.org/1999/02/22-rdf-syntax-ns#"
   xmlns:svg="http://www.w3.org/2000/svg"
   xmlns="http://www.w3.org/2000/svg"
   viewBox="0 0 262.48801 262.48801"
   height="262.48801"
   width="262.48801"
   xml:space="preserve"
   id="svg2"
   version="1.1"><metadata
     id="metadata8"><rdf:RDF><cc:Work
         rdf:about=""><dc:format>image/svg+xml</dc:format><dc:type
           rdf:resource="http://purl.org/dc/dcmitype/StillImage" /></cc:Work></rdf:RDF></metadata><defs
     id="defs6"><clipPath
       id="clipPath18"
       clipPathUnits="userSpaceOnUse"><path
         id="path16"
         d="M 0,196.866 H 196.866 V 0 H 0 Z" /></clipPath></defs><g
     transform="matrix(1.3333333,0,0,-1.3333333,0,262.488)"
     id="g10"><g
       id="g12"><g
         clip-path="url(#clipPath18)"
         id="g14"><g
           transform="translate(98.4331,6.5623)"
           id="g20"><path
             id="path22"
             style="fill:#000000;fill-opacity:1;fill-rule:nonzero;stroke:none"
             d="m 0,0 c -50.738,0 -91.871,41.132 -91.871,91.871 0,50.738 41.133,91.87 91.871,91.87 50.738,0 91.87,-41.132 91.87,-91.87 C 91.813,41.156 50.714,0.058 0,0 m 0,190.304 c -54.362,0 -98.434,-44.071 -98.434,-98.433 0,-54.363 44.072,-98.433 98.434,-98.433 54.362,0 98.433,44.07 98.433,98.433 C 98.372,146.208 54.337,190.243 0,190.304" /></g><g
           transform="translate(101.7144,26.3304)"
           id="g24"><path
             id="path26"
             style="fill:#000000;fill-opacity:1;fill-rule:nonzero;stroke:none"
             d="m 0,0 v 9.762 c 0,1.812 -1.47,3.281 -3.281,3.281 -1.813,0 -3.281,-1.469 -3.281,-3.281 V 0 c -37.265,1.74 -67.082,31.557 -68.822,68.821 h 9.762 c 1.811,0 3.281,1.47 3.281,3.282 0,1.812 -1.47,3.281 -3.281,3.281 h -9.762 c 1.74,37.264 31.557,67.081 68.822,68.821 v -9.762 c 0,-1.812 1.468,-3.281 3.281,-3.281 1.811,0 3.281,1.469 3.281,3.281 v 9.762 c 37.265,-1.74 67.081,-31.557 68.821,-68.821 H 59.06 c -1.813,0 -3.282,-1.469 -3.282,-3.281 0,-1.812 1.469,-3.282 3.282,-3.282 h 9.761 C 67.081,31.557 37.265,1.74 0,0 m -3.281,150.849 c -43.491,0 -78.746,-35.256 -78.746,-78.746 0,-43.491 35.255,-78.747 78.746,-78.747 43.49,0 78.746,35.256 78.746,78.747 -0.051,43.469 -35.277,78.695 -78.746,78.746" /></g><g
           transform="translate(98.4331,95.1517)"
           id="g28"><path
             id="path30"
             style="fill:#000000;fill-opacity:1;fill-rule:nonzero;stroke:none"
             d="m 0,0 c -1.812,0 -3.281,1.469 -3.281,3.281 0,1.812 1.469,3.281 3.281,3.281 1.812,0 3.281,-1.469 3.281,-3.281 C 3.281,1.469 1.812,0 0,0 M 42.654,6.562 H 9.239 C 7.854,10.481 4.155,13.107 0,13.125 -1.465,13.12 -2.908,12.783 -4.224,12.141 l -0.018,0.029 -36.093,36.092 c -1.288,1.243 -3.334,1.225 -4.6,-0.04 -1.265,-1.266 -1.283,-3.312 -0.04,-4.6 L -8.882,7.53 -8.854,7.511 c -0.643,-1.317 -0.983,-2.764 -0.99,-4.23 -0.01,-4.788 3.437,-8.885 8.157,-9.697 4.719,-0.811 9.335,1.9 10.926,6.416 h 33.415 c 1.812,0 3.282,1.469 3.282,3.281 0,1.812 -1.47,3.281 -3.282,3.281" /></g></g></g></g></svg>