<?xml version="1.0" encoding="UTF-8" standalone="no"?>
<svg
   xmlns:dc="http://purl.org/dc/elements/1.1/"
   xmlns:cc="http://creativecommons.org/ns#"
   xmlns:rdf="http://www.w3.org/1999/02/22-rdf-syntax-ns#"
   xmlns:svg="http://www.w3.org/2000/svg"
   xmlns="http://www.w3.org/2000/svg"
   viewBox="0 0 425.828 468.62134"
   height="468.62134"
   width="425.828"
   xml:space="preserve"
   id="svg2"
   version="1.1"><metadata
     id="metadata8"><rdf:RDF><cc:Work
         rdf:about=""><dc:format>image/svg+xml</dc:format><dc:type
           rdf:resource="http://purl.org/dc/dcmitype/StillImage" /></cc:Work></rdf:RDF></metadata><defs
     id="defs6"><clipPath
       id="clipPath18"
       clipPathUnits="userSpaceOnUse"><path
         id="path16"
         d="M 0,351.466 H 319.371 V 0 H 0 Z" /></clipPath></defs><g
     transform="matrix(1.3333333,0,0,-1.3333333,0,468.62133)"
     id="g10"><g
       id="g12"><g
         clip-path="url(#clipPath18)"
         id="g14"><g
           transform="translate(159.6853,201.2905)"
           id="g20"><path
             id="path22"
             style="fill:#000000;fill-opacity:1;fill-rule:nonzero;stroke:none"
             d="M 0,0 -103.392,44.469 -5.277,86.67 V 69.577 c 0,-2.91 2.367,-5.277 5.277,-5.277 2.91,0 5.277,2.367 5.277,5.277 V 86.67 l 98.116,-42.201 z m 156.552,-109.295 -34.529,15.339 V 44.469 c 0,2.123 -1.274,4.036 -3.245,4.874 L 5.277,98.159 v 46.74 c 0,2.91 -2.367,5.277 -5.277,5.277 -2.91,0 -5.277,-2.367 -5.277,-5.277 v -46.74 l -0.605,-0.26 -112.892,-48.554 c -1.948,-0.81 -3.249,-2.767 -3.249,-4.876 V -93.956 l -34.529,-15.339 c -2.657,-1.183 -3.86,-4.308 -2.679,-6.965 0.569,-1.284 1.606,-2.272 2.918,-2.78 1.316,-0.51 2.753,-0.475 4.047,0.1 l 35.552,15.796 54.605,-23.485 c 0.691,3.483 1.678,6.913 2.942,10.222 l -44.408,19.101 22.519,10.006 c 2.659,1.182 3.861,4.308 2.679,6.967 -1.183,2.657 -4.309,3.859 -6.965,2.679 l -26.131,-11.612 V 36.458 L -5.277,-9.218 v -66.627 c 3.518,0.293 7.034,0.293 10.554,0 V -9.218 L 111.47,36.458 V -89.266 l -26.128,11.61 c -1.289,0.573 -2.723,0.609 -4.039,0.103 -1.315,-0.506 -2.354,-1.494 -2.926,-2.782 -1.181,-2.659 0.021,-5.783 2.68,-6.965 l 22.518,-10.006 -44.41,-19.101 c 1.266,-3.309 2.252,-6.739 2.943,-10.222 l 54.607,23.485 35.552,-15.796 c 2.66,-1.184 5.785,0.02 6.964,2.68 1.181,2.657 -0.021,5.782 -2.679,6.965" /></g><g
           transform="translate(159.6853,10)"
           id="g24"><path
             id="path26"
             style="fill:#000000;fill-opacity:1;fill-rule:nonzero;stroke:none"
             d="m 0,0 c -28.857,0 -52.333,23.477 -52.333,52.333 0,2.318 0.167,4.598 0.46,6.837 0.562,4.283 1.643,8.403 3.178,12.298 6.921,17.55 23.056,30.482 42.418,32.808 2.06,0.247 4.152,0.39 6.277,0.39 2.125,0 4.217,-0.143 6.277,-0.39 19.362,-2.326 35.496,-15.258 42.417,-32.808 1.536,-3.895 2.617,-8.015 3.178,-12.298 0.294,-2.24 0.461,-4.519 0.461,-6.837 C 52.333,23.477 28.856,0 0,0 m 61.356,63.249 c -0.749,4.218 -1.92,8.289 -3.474,12.171 -8.452,21.114 -28.119,36.571 -51.605,38.93 -2.065,0.208 -4.159,0.316 -6.277,0.316 -2.119,0 -4.212,-0.108 -6.277,-0.316 -23.486,-2.359 -43.153,-17.816 -51.606,-38.93 -1.554,-3.882 -2.725,-7.952 -3.473,-12.171 -0.63,-3.547 -0.977,-7.19 -0.977,-10.916 C -62.333,17.963 -34.371,-10 0,-10 c 34.37,0 62.333,27.963 62.333,62.333 0,3.726 -0.347,7.368 -0.977,10.916" /></g><g
           transform="translate(150.9383,62.4531)"
           id="g28"><path
             id="path30"
             style="fill:#000000;fill-opacity:1;fill-rule:nonzero;stroke:none"
             d="m 0,0 c 1.57,-1.715 2.355,-3.837 2.355,-6.369 0,-1.954 -0.513,-3.756 -1.538,-5.407 -1.025,-1.65 -2.588,-2.972 -4.686,-3.965 -2.099,-0.991 -4.671,-1.488 -7.714,-1.488 -2.372,0 -4.703,0.311 -6.993,0.936 -2.291,0.624 -4.237,1.514 -5.839,2.667 l 3.028,5.961 c 1.281,-0.963 2.763,-1.707 4.445,-2.236 1.683,-0.529 3.404,-0.793 5.167,-0.793 1.954,0 3.492,0.375 4.614,1.13 1.121,0.751 1.682,1.817 1.682,3.195 0,2.755 -2.099,4.133 -6.296,4.133 h -3.557 v 5.144 l 6.921,7.833 h -14.322 v 6.248 H 0.817 V 11.942 L -6.777,3.292 C -3.829,2.811 -1.57,1.714 0,0" /></g><g
           transform="translate(173.9109,52.1914)"
           id="g32"><path
             id="path34"
             style="fill:#000000;fill-opacity:1;fill-rule:nonzero;stroke:none"
             d="m 0,0 c 3.365,0 6.047,0.937 8.051,2.811 2.002,1.874 3.004,4.413 3.004,7.619 0,3.203 -1.002,5.742 -3.004,7.617 C 6.047,19.921 3.365,20.859 0,20.859 H -7.113 V 0 Z M -14.899,27.251 H 0.385 c 3.652,0 6.88,-0.697 9.684,-2.091 2.804,-1.392 4.982,-3.355 6.536,-5.888 1.554,-2.53 2.332,-5.477 2.332,-8.842 0,-3.365 -0.778,-6.313 -2.332,-8.845 -1.554,-2.53 -3.732,-4.492 -6.536,-5.886 C 7.265,-5.696 4.037,-6.392 0.385,-6.392 h -15.284 z" /></g></g></g></g></svg>