<?xml version="1.0" encoding="UTF-8" standalone="no"?>
<svg
   xmlns:dc="http://purl.org/dc/elements/1.1/"
   xmlns:cc="http://creativecommons.org/ns#"
   xmlns:rdf="http://www.w3.org/1999/02/22-rdf-syntax-ns#"
   xmlns:svg="http://www.w3.org/2000/svg"
   xmlns="http://www.w3.org/2000/svg"
   viewBox="0 0 660.48798 671.54266"
   height="671.54266"
   width="660.48798"
   xml:space="preserve"
   id="svg2"
   version="1.1"><metadata
     id="metadata8"><rdf:RDF><cc:Work
         rdf:about=""><dc:format>image/svg+xml</dc:format><dc:type
           rdf:resource="http://purl.org/dc/dcmitype/StillImage" /></cc:Work></rdf:RDF></metadata><defs
     id="defs6"><clipPath
       id="clipPath18"
       clipPathUnits="userSpaceOnUse"><path
         id="path16"
         d="M 0,503.657 H 495.366 V 0 H 0 Z" /></clipPath></defs><g
     transform="matrix(1.3333333,0,0,-1.3333333,0,671.54267)"
     id="g10"><g
       id="g12"><g
         clip-path="url(#clipPath18)"
         id="g14"><g
           transform="translate(139.7628,411.3317)"
           id="g20"><path
             id="path22"
             style="fill:#000000;fill-opacity:1;fill-rule:nonzero;stroke:none"
             d="M 0,0 C 0,5.267 12.31,11.39 28.18,11.39 44.05,11.39 56.36,5.267 56.36,0 56.36,-5.272 44.05,-11.4 28.18,-11.4 12.31,-11.4 0,-5.272 0,0 m 70.15,0 c 0,14.35 -18.04,25.18 -41.97,25.18 -23.93,0 -41.96,-10.83 -41.96,-25.18 0,-14.36 18.03,-25.18 41.96,-25.18 23.93,0 41.97,10.82 41.97,25.18" /></g><g
           transform="translate(327.4229,190.1017)"
           id="g24"><path
             id="path26"
             style="fill:#000000;fill-opacity:1;fill-rule:nonzero;stroke:none"
             d="m 0,0 c -15.871,0 -28.181,6.123 -28.181,11.39 0,5.267 12.31,11.39 28.181,11.39 15.87,0 28.18,-6.123 28.18,-11.39 C 28.18,6.123 15.87,0 0,0 m 0,36.57 c -23.931,0 -41.971,-10.83 -41.971,-25.18 0,-14.35 18.04,-25.18 41.971,-25.18 23.93,0 41.96,10.83 41.96,25.18 0,14.35 -18.03,25.18 -41.96,25.18" /></g><g
           transform="translate(478.503,81.1613)"
           id="g28"><path
             id="path30"
             style="fill:#000000;fill-opacity:1;fill-rule:nonzero;stroke:none"
             d="M 0,0 -142.69,-60.079 V 60.11 L 0,120.2 Z m -151.08,74.79 -137.86,58.051 24.28,10.239 c 9.909,-10.21 23.849,-15.47 38.04,-14.359 40.97,0 53.87,28.54 30.149,43.009 l 8.521,3.59 c 15.389,-17.399 58.349,-17.399 73.729,0 l 8.531,-3.59 c -23.96,-14.599 -10.331,-43.009 30.15,-43.009 14.18,-1.111 28.12,4.149 38.04,14.359 l 24.279,-10.239 z m -8.4,-134.869 -302.16,127.229 v 120.19 l 147.81,-62.23 154.35,-65 z M -461.64,330.03 -318.95,269.95 V 145.511 l -142.69,60.05 z m 37.5,22.88 c 17.539,-23.17 80.01,-17.349 80.01,10.83 -0.48,7.62 -4.99,14.41 -11.82,17.83 l 8.53,3.59 c 15.38,-17.41 58.35,-17.4 73.73,0 l 8.52,-3.59 c -6.83,-3.42 -11.33,-10.21 -11.81,-17.83 0,-28.15 62.44,-34.03 80,-10.83 l 24.28,-10.229 -137.861,-58.051 -137.849,58.051 z m 38.039,22.22 c 15.871,0 28.181,-6.123 28.181,-11.39 0,-5.267 -12.31,-11.389 -28.181,-11.389 -15.87,0 -28.179,6.122 -28.179,11.389 0,5.267 12.309,11.39 28.179,11.39 m 75.54,33.58 c 15.871,0 28.181,-6.127 28.181,-11.399 0,-5.268 -12.31,-11.391 -28.181,-11.391 -15.87,0 -28.179,6.123 -28.179,11.391 0,5.272 12.309,11.399 28.179,11.399 m 75.54,-33.58 c 15.872,0 28.181,-6.123 28.181,-11.39 0,-5.267 -12.309,-11.389 -28.181,-11.389 -15.87,0 -28.179,6.122 -28.179,11.389 0,5.267 12.309,11.39 28.179,11.39 M -198.44,153.9 c 0,-5.266 -12.31,-11.389 -28.18,-11.389 -15.871,0 -28.18,6.123 -28.18,11.389 0,5.273 12.309,11.401 28.18,11.401 15.87,0 28.18,-6.128 28.18,-11.401 m 38.96,58.281 c -17.38,-1.96 -30.21,-9.96 -32.911,-20.511 -36.41,-15.339 -28.219,-12.589 -34.229,-12.589 -20.24,0 -36.1,-7.79 -40.59,-18.86 l -34.95,-14.71 V 269.95 l 142.68,60.08 z m 36.58,-24.701 c 0,-5.272 -12.31,-11.399 -28.18,-11.399 -15.871,0 -28.181,6.127 -28.181,11.399 0,5.268 12.31,11.391 28.181,11.391 15.87,0 28.18,-6.123 28.18,-11.391 m 47.36,-22.179 c 15.87,0 28.18,-6.128 28.18,-11.401 0,-5.266 -12.31,-11.389 -28.18,-11.389 -15.871,0 -28.181,6.123 -28.181,11.389 0,5.273 12.31,11.401 28.181,11.401 m 92.33,-36.58 c -0.061,0.599 -0.17,1.179 -0.36,1.75 1.19,4.08 -0.861,8.41 -4.77,10.069 l -46.61,19.65 c -4.46,11.101 -20.351,18.891 -40.59,18.891 -6,0 2.25,-2.781 -34.24,12.589 -2.691,10.551 -15.531,18.551 -32.91,20.511 0,137.65 0.33,131.409 -0.65,133.75 -0.87,1.969 -2.44,3.549 -4.41,4.44 -1.61,0.699 0.05,0 -46.681,19.69 -4.449,11.069 -20.349,18.859 -40.59,18.859 -6,0 2.25,-2.79 -34.229,12.59 -7.22,27.961 -75.39,28 -82.61,0 -36.411,-15.34 -28.22,-12.59 -34.241,-12.59 -20.239,0 -36.089,-7.79 -40.589,-18.859 -22.45,-9.471 -45.82,-19.301 -46.68,-19.69 -1.8,-0.79 -3.25,-2.19 -4.08,-3.971 -1.45,-2.879 -0.98,16.63 -0.98,-284.82 0,-3.38 2.03,-6.43 5.14,-7.739 336.6,-141.731 318.47,-134.95 322.21,-134.95 2.83,0 -7.721,-3.96 162.729,67.799 1.571,0.56 2.861,1.701 3.621,3.191 2.1,3.159 1.52,-6.931 1.52,138.84" /></g></g></g></g></svg>