<?xml version="1.0" encoding="UTF-8" standalone="no"?>
<svg
   xmlns:dc="http://purl.org/dc/elements/1.1/"
   xmlns:cc="http://creativecommons.org/ns#"
   xmlns:rdf="http://www.w3.org/1999/02/22-rdf-syntax-ns#"
   xmlns:svg="http://www.w3.org/2000/svg"
   xmlns="http://www.w3.org/2000/svg"
   viewBox="0 0 682.66534 511.98801"
   height="511.98801"
   width="682.66534"
   xml:space="preserve"
   id="svg2"
   version="1.1"><metadata
     id="metadata8"><rdf:RDF><cc:Work
         rdf:about=""><dc:format>image/svg+xml</dc:format><dc:type
           rdf:resource="http://purl.org/dc/dcmitype/StillImage" /></cc:Work></rdf:RDF></metadata><defs
     id="defs6"><clipPath
       id="clipPath18"
       clipPathUnits="userSpaceOnUse"><path
         id="path16"
         d="M 0,383.991 H 511.999 V 0 H 0 Z" /></clipPath></defs><g
     transform="matrix(1.3333333,0,0,-1.3333333,0,511.988)"
     id="g10"><g
       id="g12"><g
         clip-path="url(#clipPath18)"
         id="g14"><g
           transform="translate(197.4819,243.7993)"
           id="g20"><path
             id="path22"
             style="fill:#000000;fill-opacity:1;fill-rule:nonzero;stroke:none"
             d="m 0,0 -53.333,32 c -4.992,3.008 -11.584,1.408 -14.635,-3.648 -3.008,-5.056 -1.387,-11.605 3.669,-14.635 l 53.333,-32 c 1.707,-1.024 3.605,-1.515 5.483,-1.515 3.605,0 7.147,1.835 9.152,5.163 C 6.698,-9.579 5.056,-3.03 0,0" /></g><g
           transform="translate(261.4824,265.1323)"
           id="g24"><path
             id="path26"
             style="fill:#000000;fill-opacity:1;fill-rule:nonzero;stroke:none"
             d="m 0,0 -53.333,32 c -4.992,3.029 -11.584,1.408 -14.635,-3.648 -3.009,-5.056 -1.387,-11.605 3.669,-14.635 l 53.333,-32 c 1.707,-1.024 3.605,-1.515 5.483,-1.515 3.605,0 7.147,1.835 9.152,5.163 C 6.697,-9.579 5.056,-3.029 0,0" /></g><g
           transform="translate(325.4824,286.4648)"
           id="g28"><path
             id="path30"
             style="fill:#000000;fill-opacity:1;fill-rule:nonzero;stroke:none"
             d="m 0,0 -53.333,32 c -4.992,3.029 -11.563,1.408 -14.636,-3.648 -3.008,-5.056 -1.386,-11.605 3.669,-14.635 l 53.333,-32 c 1.707,-1.024 3.606,-1.515 5.484,-1.515 3.605,0 7.147,1.835 9.152,5.163 C 6.697,-9.578 5.056,-3.029 0,0" /></g><g
           transform="translate(389.4824,307.7993)"
           id="g32"><path
             id="path34"
             style="fill:#000000;fill-opacity:1;fill-rule:nonzero;stroke:none"
             d="m 0,0 -53.333,32 c -4.992,3.008 -11.605,1.408 -14.636,-3.648 -3.008,-5.056 -1.386,-11.605 3.669,-14.635 l 53.333,-32 c 1.707,-1.024 3.606,-1.515 5.484,-1.515 3.605,0 7.147,1.835 9.152,5.163 C 6.697,-9.579 5.056,-3.03 0,0" /></g><g
           transform="translate(490.666,125.1855)"
           id="g36"><path
             id="path38"
             style="fill:#000000;fill-opacity:1;fill-rule:nonzero;stroke:none"
             d="M 0,0 -320,-100.012 V 48.319 l 320,99.99 z m -329.408,67.711 -124.054,70.892 313.515,97.983 124.053,-70.891 z m -11.926,-163.84 -128,73.132 v 146.091 l 128,-73.131 z M 21.077,163.818 c -0.107,1.025 -0.32,2.006 -0.704,2.945 -0.213,0.532 -0.448,1.003 -0.747,1.492 -0.512,0.853 -1.152,1.557 -1.899,2.241 -0.299,0.276 -0.427,0.661 -0.768,0.896 -0.149,0.107 -0.363,0.107 -0.512,0.212 -0.192,0.128 -0.299,0.32 -0.512,0.449 l -149.333,85.334 c -2.581,1.471 -5.653,1.835 -8.469,0.917 L -483.2,151.638 c -0.469,-0.128 -0.832,-0.47 -1.28,-0.683 -0.277,-0.128 -0.597,-0.085 -0.853,-0.235 -0.213,-0.129 -0.32,-0.385 -0.533,-0.533 -1.216,-0.812 -2.197,-1.813 -2.965,-2.987 -0.128,-0.214 -0.32,-0.342 -0.448,-0.555 -0.811,-1.473 -1.216,-3.093 -1.28,-4.8 0,-0.129 -0.107,-0.236 -0.107,-0.364 V -29.186 c 0,-3.819 2.048,-7.36 5.376,-9.258 l 149.333,-85.333 c 1.643,-0.94 3.456,-1.409 5.291,-1.409 1.045,0 2.133,0.15 3.157,0.492 L 13.824,-18.027 c 4.459,1.386 7.509,5.504 7.509,10.175 v 170.667 c 0,0.343 -0.213,0.641 -0.256,1.003" /></g></g></g></g></svg>