<?xml version="1.0" encoding="UTF-8" standalone="no"?>
<svg
   xmlns:dc="http://purl.org/dc/elements/1.1/"
   xmlns:cc="http://creativecommons.org/ns#"
   xmlns:rdf="http://www.w3.org/1999/02/22-rdf-syntax-ns#"
   xmlns:svg="http://www.w3.org/2000/svg"
   xmlns="http://www.w3.org/2000/svg"
   viewBox="0 0 357.97601 248.78934"
   height="248.78934"
   width="357.97601"
   xml:space="preserve"
   id="svg2"
   version="1.1"><metadata
     id="metadata8"><rdf:RDF><cc:Work
         rdf:about=""><dc:format>image/svg+xml</dc:format><dc:type
           rdf:resource="http://purl.org/dc/dcmitype/StillImage" /></cc:Work></rdf:RDF></metadata><defs
     id="defs6"><clipPath
       id="clipPath18"
       clipPathUnits="userSpaceOnUse"><path
         id="path16"
         d="M 0,186.592 H 268.482 V 0 H 0 Z" /></clipPath></defs><g
     transform="matrix(1.3333333,0,0,-1.3333333,0,248.78933)"
     id="g10"><g
       id="g12"><g
         clip-path="url(#clipPath18)"
         id="g14"><g
           transform="translate(203.915,21.0919)"
           id="g20"><path
             id="path22"
             style="fill:#000000;fill-opacity:1;fill-rule:nonzero;stroke:none"
             d="m 0,0 c -3.512,0 -6.368,2.856 -6.368,6.37 0,3.512 2.856,6.37 6.368,6.37 3.514,0 6.37,-2.858 6.37,-6.37 C 6.37,2.856 3.514,0 0,0 m 0,19.546 c -7.264,0 -13.176,-5.912 -13.176,-13.176 0,-7.266 5.912,-13.176 13.176,-13.176 7.266,0 13.176,5.91 13.176,13.176 0,7.264 -5.91,13.176 -13.176,13.176" /></g><g
           transform="translate(41.4346,83.5377)"
           id="g24"><path
             id="path26"
             style="fill:#000000;fill-opacity:1;fill-rule:nonzero;stroke:none"
             d="M 0,0 C 7.027,2.37 16.436,3.675 26.497,3.675 36.556,3.675 45.965,2.37 52.992,0 c 7.206,-2.428 9.111,-5.036 9.111,-6.075 0,-1.04 -1.905,-3.648 -9.111,-6.076 -7.027,-2.37 -16.436,-3.675 -26.495,-3.675 -10.061,0 -19.472,1.305 -26.499,3.675 -7.206,2.428 -9.108,5.037 -9.108,6.076 0,1.039 1.904,3.647 9.11,6.075 m 26.497,-22.631 c 21.076,0 42.413,5.687 42.413,16.556 0,10.87 -21.336,16.557 -42.413,16.557 -21.078,0 -42.413,-5.687 -42.413,-16.557 0,-10.869 21.335,-16.556 42.413,-16.556" /></g><g
           transform="translate(225.1943,8.0694)"
           id="g28"><path
             id="path30"
             style="fill:#000000;fill-opacity:1;fill-rule:nonzero;stroke:none"
             d="M 0,0 C 0,-0.697 -0.566,-1.264 -1.264,-1.264 H -42.559 V 40.049 H -1.264 C -0.566,40.049 0,39.482 0,38.785 Z m -49.364,-1.264 h -8.054 v 17.208 c 0,1.88 -1.523,3.405 -3.403,3.405 -1.878,0 -3.403,-1.525 -3.403,-3.405 V -1.264 h -8.053 v 12.102 c 0,1.88 -1.524,3.403 -3.404,3.403 -1.88,0 -3.402,-1.523 -3.402,-3.403 V -1.264 h -8.055 v 12.102 c 0,1.88 -1.524,3.403 -3.402,3.403 -1.88,0 -3.404,-1.523 -3.404,-3.403 V -1.264 h -8.053 v 12.102 c 0,1.88 -1.524,3.403 -3.404,3.403 -1.878,0 -3.402,-1.523 -3.402,-3.403 V -1.264 h -8.055 v 12.102 c 0,1.88 -1.523,3.403 -3.403,3.403 -1.879,0 -3.403,-1.523 -3.403,-3.403 V -1.264 h -8.054 v 17.208 c 0,1.88 -1.524,3.405 -3.404,3.405 -1.878,0 -3.401,-1.525 -3.401,-3.405 V -1.264 h -8.054 v 12.102 c 0,1.88 -1.524,3.403 -3.404,3.403 -1.88,0 -3.404,-1.523 -3.404,-3.403 V -1.264 h -8.053 v 12.102 c 0,1.88 -1.524,3.403 -3.402,3.403 -1.88,0 -3.404,-1.523 -3.404,-3.403 V -1.264 h -8.053 v 12.102 c 0,1.88 -1.524,3.403 -3.404,3.403 -1.88,0 -3.403,-1.523 -3.403,-3.403 V -1.264 h -6 c -0.692,0 -1.375,0.034 -2.055,0.08 v 12.022 c 0,1.88 -1.522,3.403 -3.402,3.403 -1.879,0 -3.403,-1.523 -3.403,-3.403 V 0.109 c -2.909,0.926 -5.617,2.296 -8.054,4.028 v 11.807 c 0,1.88 -1.524,3.405 -3.404,3.405 -1.878,0 -3.402,-1.525 -3.402,-3.405 v -5.069 c -3.495,4.823 -5.565,10.744 -5.565,17.141 v 28.203 c 0.004,-0.003 0.009,-0.007 0.014,-0.01 7.627,-6.735 17.813,-10.149 27.455,-12.454 10.996,-2.627 22.361,-3.706 33.654,-3.706 h 70.162 2.865 21.174 13.117 0.584 z m -46.775,57.485 v -9.367 h -16.967 c 0.931,0.335 1.848,0.68 2.74,1.038 5.958,2.394 10.739,5.211 14.227,8.329 m -113.242,24.54 c 8.147,4.763 19.788,7.587 22.125,8.123 9.157,1.998 19.418,3.049 29.993,3.049 36.022,0 61.124,-11.878 61.124,-22.539 0,-5.977 -6.594,-10.174 -11.206,-12.624 -6.851,-3.639 -14.296,-5.873 -21.889,-7.462 -5.619,-1.178 -11.33,-1.898 -17.058,-2.254 -11.346,-0.704 -22.75,0.013 -34.002,1.54 -9.486,1.289 -19.447,4.013 -27.825,8.74 -4.28,2.416 -10.227,6.449 -10.268,12.014 0,0.016 -0.002,0.031 -0.002,0.048 0,2.692 1.574,6.841 9.008,11.365 M -1.264,46.854 h -48.684 -13.117 -21.174 -2.865 -2.229 v 22.54 c 0,8.413 -7.47,16.048 -21.033,21.5 -12.581,5.059 -29.238,7.845 -46.897,7.845 -11.187,0 -22.072,-1.132 -31.795,-3.281 l -0.001,0.002 c -0.019,-0.005 -0.036,-0.009 -0.054,-0.014 -1.571,-0.348 -3.115,-0.72 -4.621,-1.122 -0.377,-0.1 -0.721,-0.263 -1.027,-0.47 -9.166,-2.757 -14.654,-5.323 -17.622,-6.974 -0.098,-0.047 -0.196,-0.099 -0.292,-0.156 -0.056,-0.034 -0.109,-0.068 -0.165,-0.102 -1.761,-1.011 -2.48,-1.617 -2.48,-1.617 -8.08,-5.694 -9.873,-11.544 -9.874,-15.609 v -41.38 c 0,-17.764 12.908,-32.561 29.835,-35.532 0.145,-0.035 0.292,-0.063 0.442,-0.079 1.895,-0.308 3.833,-0.474 5.813,-0.474 h 187.84 c 4.45,0 8.07,3.619 8.07,8.069 v 38.785 c 0,4.449 -3.62,8.069 -8.07,8.069" /></g><g
           transform="translate(263.9248,165.3546)"
           id="g32"><path
             id="path34"
             style="fill:#030104;fill-opacity:1;fill-rule:nonzero;stroke:none"
             d="M 0,0 C 0.383,-0.056 0.641,-0.098 1.18,-0.207 2.708,-0.379 4.13,0.589 4.48,2.069 4.66,2.851 4.521,3.648 4.091,4.316 3.651,5 2.939,5.491 2.083,5.703 L 1.451,5.801 c -1.325,0.173 -4.187,0.387 -7.99,-0.2 L -10.792,4.649 C -13.83,3.76 -16.817,2.393 -19.675,0.584 l -4.363,-3.192 c -9.777,-8.189 -17.083,-21.773 -21.713,-40.378 -3.56,-14.279 -10.312,-23.75 -20.068,-28.15 -6.008,-2.728 -13.194,-3.562 -21.357,-2.469 -10.663,1.409 -19.294,5.621 -20.306,6.133 l -0.001,-0.001 c -0.401,0.2 -0.839,0.293 -1.279,0.293 -1.108,0 -2.222,-0.597 -2.747,-1.6 -0.359,-0.696 -0.427,-1.502 -0.183,-2.261 0.243,-0.759 0.766,-1.378 1.475,-1.743 0.116,-0.061 9.83,-5.139 22.191,-6.786 9.25,-1.228 17.547,-0.229 24.653,2.971 11.516,5.186 19.395,16.01 23.421,32.17 3.14,12.58 7.49,22.717 12.929,30.129 l 0.111,0.138 5.031,5.706 c 3.609,3.442 7.513,5.885 11.608,7.264 l 0.294,0.154 0.819,0.005 3.186,0.897 C -3.148,0.295 -1.02,0.134 0,0" /></g><g
           transform="translate(254.4531,162.3219)"
           id="g36"><path
             id="path38"
             style="fill:#030104;fill-opacity:1;fill-rule:nonzero;stroke:none"
             d="m 0,0 v -0.17 l -0.029,0.16 C -0.02,-0.01 -0.01,0 0,0" /></g><g
           transform="translate(257.0137,172.922)"
           id="g40"><path
             id="path42"
             style="fill:#030104;fill-opacity:1;fill-rule:nonzero;stroke:none"
             d="m 0,0 -4.38,-0.98 c -1.06,2.36 -2.51,3.82 -4.1,3.82 -2.42,0 -4.5,-3.36 -5.41,-8.17 l -4.47,-3.27 c 0.93,12.71 4.94,22.27 9.77,22.27 C -4.93,13.67 -1.75,8.18 0,0" /></g><g
           transform="translate(258.4033,158.8018)"
           id="g44"><path
             id="path46"
             style="fill:#030104;fill-opacity:1;fill-rule:nonzero;stroke:none"
             d="m 0,0 v -7.78 l -1.1,-20.8 -6.12,-116.31 c 0,-2.75 0,-12.46 -2.75,-12.46 -2.759,0 -2.759,9.71 -2.759,12.46 l -6.121,116.35 -1.04,19.61 4.911,5.58 c 1.009,-4.1 2.899,-6.91 5.109,-6.91 3.28,0 5.92,6.1 5.92,13.61 l 3.801,1.09 C -0.05,2.99 0,1.51 0,0" /></g><g
           transform="translate(252.6338,171.942)"
           id="g48"><path
             id="path50"
             style="fill:#030104;fill-opacity:1;fill-rule:nonzero;stroke:none"
             d="m 0,0 c 0,0 2.085,-5.746 1.819,-9.79 -0.264,-4.045 3.801,1.09 3.801,1.09 0,0 -0.246,5.817 -1.24,9.68 C 3.386,4.843 0,0 0,0" /></g><g
           transform="translate(238.6533,164.3219)"
           id="g52"><path
             id="path54"
             style="fill:#030104;fill-opacity:1;fill-rule:nonzero;stroke:none"
             d="m 0,0 c 0,0 -0.319,-11.056 -0.14,-14.45 0.18,-3.394 4.911,5.58 4.911,5.58 0,0 -0.746,8.908 -0.3,12.14 C 4.915,6.502 0,0 0,0" /></g></g></g></g></svg>