<?xml version="1.0" encoding="UTF-8" standalone="no"?>
<svg
   xmlns:dc="http://purl.org/dc/elements/1.1/"
   xmlns:cc="http://creativecommons.org/ns#"
   xmlns:rdf="http://www.w3.org/1999/02/22-rdf-syntax-ns#"
   xmlns:svg="http://www.w3.org/2000/svg"
   xmlns="http://www.w3.org/2000/svg"
   viewBox="0 0 682.66669 682.66669"
   height="682.66669"
   width="682.66669"
   xml:space="preserve"
   id="svg2"
   version="1.1"><metadata
     id="metadata8"><rdf:RDF><cc:Work
         rdf:about=""><dc:format>image/svg+xml</dc:format><dc:type
           rdf:resource="http://purl.org/dc/dcmitype/StillImage" /></cc:Work></rdf:RDF></metadata><defs
     id="defs6"><clipPath
       id="clipPath18"
       clipPathUnits="userSpaceOnUse"><path
         id="path16"
         d="M 0,512 H 512 V 0 H 0 Z" /></clipPath></defs><g
     transform="matrix(1.3333333,0,0,-1.3333333,0,682.66667)"
     id="g10"><g
       id="g12"><g
         clip-path="url(#clipPath18)"
         id="g14"><g
           transform="translate(494.9326,455.7998)"
           id="g20"><path
             id="path22"
             style="fill:#000000;fill-opacity:1;fill-rule:nonzero;stroke:none"
             d="m 0,0 -112.696,-112.697 -0.005,-0.005 -92.099,-92.098 v 27.067 L 0,27.067 Z m -59.732,-174.2 c 0.726,0.048 1.443,0.193 2.132,0.431 0.69,-0.237 1.407,-0.382 2.133,-0.431 h 43.401 l -36.784,-36.782 -168.141,-176.551 h -60.342 c -21.198,0.023 -38.376,17.202 -38.399,38.4 v 76.8 c 0.023,21.198 17.201,38.377 38.399,38.4 h 64 c 2.264,0.007 4.433,0.907 6.036,2.503 l 95.032,95.032 c 7.599,-22.558 28.73,-37.763 52.533,-37.802 M 0,-213.333 -48.85,-262.183 -204.8,-425.931 v 26.453 l 168.167,176.579 36.634,36.632 v -27.066 z m -221.865,-225.399 h -256.001 v 34.132 h 55.468 c 30.618,0.036 55.43,24.848 55.466,55.467 v 76.8 c -0.035,30.619 -24.848,55.432 -55.466,55.467 h -55.468 v 34.133 h 256.001 v -34.133 h -55.468 c -30.619,-0.034 -55.431,-24.848 -55.467,-55.467 v -76.8 c 0.035,-30.619 24.848,-55.43 55.467,-55.467 h 55.468 z m -162.135,133 v -43.401 c -0.022,-21.198 -17.202,-38.377 -38.399,-38.4 H -465.8 Z m 123,344.865 h 248.934 l -204.8,-204.8 H -465.8 Z M 17.067,-3.533 v 51.2 c 0,0.109 -0.057,0.2 -0.062,0.308 -0.016,1.014 -0.216,2.016 -0.588,2.959 l -0.013,0.022 c -0.032,0.078 -0.092,0.135 -0.127,0.211 -0.381,0.832 -0.895,1.596 -1.524,2.262 -0.207,0.207 -0.424,0.403 -0.65,0.587 -0.539,0.473 -1.135,0.876 -1.777,1.197 -0.263,0.143 -0.535,0.272 -0.812,0.385 -0.95,0.38 -1.958,0.584 -2.981,0.602 h -273.066 c -2.262,-0.001 -4.433,-0.9 -6.032,-2.5 l -221.865,-221.864 -0.012,-0.016 c -0.686,-0.71 -1.243,-1.535 -1.643,-2.437 -0.393,-0.978 -0.642,-2.007 -0.742,-3.056 -0.011,-0.184 -0.106,-0.34 -0.106,-0.527 v -51.199 c 0,-4.714 3.82,-8.534 8.534,-8.534 h 64 c 21.197,-0.023 38.377,-17.202 38.399,-38.4 v -9.267 l -108.43,-108.431 c -1.591,-1.608 -2.488,-3.774 -2.503,-6.035 v -51.201 c 0,-4.712 3.82,-8.533 8.534,-8.533 h 273.066 c 1.151,0 2.289,0.235 3.348,0.688 0.114,0.05 0.196,0.155 0.309,0.21 0.906,0.418 1.733,0.991 2.441,1.695 l 0.082,0.058 170.52,179.049 51.2,51.201 c 1.6,1.599 2.5,3.769 2.5,6.032 v 51.2 c 0,0.109 -0.057,0.2 -0.062,0.308 -0.016,1.014 -0.216,2.016 -0.588,2.959 l -0.013,0.022 c -0.032,0.078 -0.092,0.135 -0.127,0.211 -0.838,1.745 -2.225,3.166 -3.95,4.046 -0.264,0.144 -0.535,0.272 -0.812,0.386 -0.95,0.38 -1.958,0.584 -2.981,0.602 h -64 c -0.726,-0.048 -1.443,-0.193 -2.133,-0.431 -0.689,0.237 -1.406,0.382 -2.132,0.431 -19.907,0.061 -36.452,15.352 -38.077,35.192 L 14.563,-9.572 c 1.592,1.607 2.492,3.775 2.504,6.039" /></g></g></g></g></svg>