<?xml version="1.0" encoding="UTF-8" standalone="no"?>
<svg
   xmlns:dc="http://purl.org/dc/elements/1.1/"
   xmlns:cc="http://creativecommons.org/ns#"
   xmlns:rdf="http://www.w3.org/1999/02/22-rdf-syntax-ns#"
   xmlns:svg="http://www.w3.org/2000/svg"
   xmlns="http://www.w3.org/2000/svg"
   viewBox="0 0 648 670.66669"
   height="670.66669"
   width="648"
   xml:space="preserve"
   id="svg2"
   version="1.1"><metadata
     id="metadata8"><rdf:RDF><cc:Work
         rdf:about=""><dc:format>image/svg+xml</dc:format><dc:type
           rdf:resource="http://purl.org/dc/dcmitype/StillImage" /></cc:Work></rdf:RDF></metadata><defs
     id="defs6"><clipPath
       id="clipPath18"
       clipPathUnits="userSpaceOnUse"><path
         id="path16"
         d="M 0,503 H 486 V 0 H 0 Z" /></clipPath></defs><g
     transform="matrix(1.3333333,0,0,-1.3333333,0,670.66667)"
     id="g10"><g
       id="g12"><g
         clip-path="url(#clipPath18)"
         id="g14"><g
           transform="translate(220.5,177)"
           id="g20"><path
             id="path22"
             style="fill:#000000;fill-opacity:1;fill-rule:nonzero;stroke:none"
             d="m 0,0 h -24.5 v 310.5 c 0,8.547 -6.953,15.5 -15.5,15.5 -8.547,0 -15.5,-6.953 -15.5,-15.5 V 0 H -80 c -8.547,0 -15.5,-6.953 -15.5,-15.5 0,-8.547 6.953,-15.5 15.5,-15.5 H 0 c 8.547,0 15.5,6.953 15.5,15.5 C 15.5,-6.953 8.547,0 0,0" /></g><g
           transform="translate(71,343.3779)"
           id="g24"><path
             id="path26"
             style="fill:#000000;fill-opacity:1;fill-rule:nonzero;stroke:none"
             d="M 0,0 C 0,8.547 -6.953,15.5 -15.5,15.5 -24.047,15.5 -31,8.547 -31,0 v -327.878 c 0,-8.547 6.953,-15.5 15.5,-15.5 8.547,0 15.5,6.953 15.5,15.5 z" /></g><g
           transform="translate(95.5,438.7559)"
           id="g28"><path
             id="path30"
             style="fill:#000000;fill-opacity:1;fill-rule:nonzero;stroke:none"
             d="m 0,0 h -24.5 v 48.744 c 0,8.547 -6.953,15.5 -15.5,15.5 -8.547,0 -15.5,-6.953 -15.5,-15.5 V 0 H -80 c -8.547,0 -15.5,-6.953 -15.5,-15.5 0,-8.547 6.953,-15.5 15.5,-15.5 H 0 c 8.547,0 15.5,6.953 15.5,15.5 C 15.5,-6.953 8.547,0 0,0" /></g><g
           transform="translate(446,316.332)"
           id="g32"><path
             id="path34"
             style="fill:#000000;fill-opacity:1;fill-rule:nonzero;stroke:none"
             d="M 0,0 C 0,8.547 -6.953,15.5 -15.5,15.5 -24.047,15.5 -31,8.547 -31,0 v -300.832 c 0,-8.547 6.953,-15.5 15.5,-15.5 8.547,0 15.5,6.953 15.5,15.5 z" /></g><g
           transform="translate(470.5,411.8779)"
           id="g36"><path
             id="path38"
             style="fill:#000000;fill-opacity:1;fill-rule:nonzero;stroke:none"
             d="m 0,0 h -24.5 v 75.622 c 0,8.547 -6.953,15.5 -15.5,15.5 -8.547,0 -15.5,-6.953 -15.5,-15.5 V 0 H -80 c -8.547,0 -15.5,-6.953 -15.5,-15.5 0,-8.547 6.953,-15.5 15.5,-15.5 H 0 c 8.547,0 15.5,6.953 15.5,15.5 C 15.5,-6.953 8.547,0 0,0" /></g><g
           transform="translate(321,169.3779)"
           id="g40"><path
             id="path42"
             style="fill:#000000;fill-opacity:1;fill-rule:nonzero;stroke:none"
             d="M 0,0 C 0,8.547 -6.953,15.5 -15.5,15.5 -24.047,15.5 -31,8.547 -31,0 v -153.878 c 0,-8.547 6.953,-15.5 15.5,-15.5 8.547,0 15.5,6.953 15.5,15.5 z" /></g><g
           transform="translate(345.5,264.7559)"
           id="g44"><path
             id="path46"
             style="fill:#000000;fill-opacity:1;fill-rule:nonzero;stroke:none"
             d="m 0,0 h -24.5 v 222.744 c 0,8.547 -6.953,15.5 -15.5,15.5 -8.547,0 -15.5,-6.953 -15.5,-15.5 V 0 H -80 c -8.547,0 -15.5,-6.953 -15.5,-15.5 0,-8.547 6.953,-15.5 15.5,-15.5 H 0 c 8.547,0 15.5,6.953 15.5,15.5 C 15.5,-6.953 8.547,0 0,0" /></g></g></g></g></svg>