<?xml version="1.0" encoding="UTF-8" standalone="no"?>
<svg
   xmlns:dc="http://purl.org/dc/elements/1.1/"
   xmlns:cc="http://creativecommons.org/ns#"
   xmlns:rdf="http://www.w3.org/1999/02/22-rdf-syntax-ns#"
   xmlns:svg="http://www.w3.org/2000/svg"
   xmlns="http://www.w3.org/2000/svg"
   viewBox="0 0 349.892 348.45334"
   height="348.45334"
   width="349.892"
   xml:space="preserve"
   id="svg2"
   version="1.1"><metadata
     id="metadata8"><rdf:RDF><cc:Work
         rdf:about=""><dc:format>image/svg+xml</dc:format><dc:type
           rdf:resource="http://purl.org/dc/dcmitype/StillImage" /></cc:Work></rdf:RDF></metadata><defs
     id="defs6"><clipPath
       id="clipPath18"
       clipPathUnits="userSpaceOnUse"><path
         id="path16"
         d="M 0,261.34 H 262.419 V 0 H 0 Z" /></clipPath></defs><g
     transform="matrix(1.3333333,0,0,-1.3333333,0,348.45333)"
     id="g10"><g
       id="g12"><g
         clip-path="url(#clipPath18)"
         id="g14"><g
           transform="translate(47.4824,42.5107)"
           id="g20"><path
             id="path22"
             style="fill:#000000;fill-opacity:1;fill-rule:nonzero;stroke:none"
             d="m 0,0 c 1.857,0 3.369,1.511 3.369,3.368 v 8.725 H 14.564 V -35.769 H -40.74 v 26.851 h 0.062 v 21.011 h 10.903 V 3.368 C -29.775,1.511 -28.263,0 -26.402,0 Z M 41.349,36.03 V 21.816 c 0,-1.857 1.512,-3.368 3.373,-3.368 h 18.784 c 1.86,0 3.373,1.511 3.373,3.368 v 13.915 h 33.979 V 21.816 c 0,-1.857 1.514,-3.368 3.374,-3.368 h 18.784 c 1.86,0 3.374,1.511 3.374,3.368 V 36.03 h 20.041 V -35.769 H 114.05 l -0.04,10.713 C 113.731,-8.714 100.211,4.582 83.871,4.582 67.242,4.582 53.714,-8.946 53.714,-25.575 V -35.769 H 21.352 L 21.307,36.03 Z M 32.941,50.405 46.536,68.709 60.137,50.405 V 25.19 H 48.091 v 14.209 c 0,1.861 -1.512,3.374 -3.369,3.374 H 32.941 Z m 67.917,-0.168 V 42.773 H 66.879 v 7.464 l 16.987,19.057 z m -41.69,87.681 h 49.402 v -74.9 l -4.579,-6.166 -17.607,19.75 c -0.638,0.715 -1.555,1.127 -2.515,1.127 h -0.001 c -0.959,0 -1.876,-0.411 -2.514,-1.127 l -17.608,-19.75 -4.578,6.166 z m 12.923,32.917 H 95.647 L 95.648,144.66 H 72.091 Z m 11.775,34.848 10.327,-28.105 H 73.545 Z M 121.201,68.709 134.739,50.486 v -7.713 h -11.723 c -1.858,0 -3.369,-1.513 -3.369,-3.374 V 25.19 H 107.601 V 50.405 Z M 107.277,-35.769 H 60.451 v 10.194 c 0,12.911 10.506,23.415 23.42,23.415 12.715,0 23.215,-10.344 23.406,-23.058 z m 45.897,47.862 h 10.917 V 3.651 c -0.005,-0.119 -0.01,-0.199 -0.01,-0.283 0,-0.08 0.005,-0.159 0.009,-0.239 C 164.208,1.379 165.686,0 167.454,0 h 26.402 c 1.858,0 3.37,1.511 3.37,3.368 v 8.725 h 10.968 v -47.862 h -55.02 z m -179.576,6.742 h -17.711 c -1.858,0 -3.369,-1.514 -3.369,-3.374 v -54.598 c 0,-1.86 1.511,-3.374 3.369,-3.374 h 255.675 c 1.861,0 3.375,1.514 3.375,3.374 v 54.598 c 0,1.857 -1.514,3.368 -3.375,3.368 h -17.706 c -1.86,0 -3.374,-1.511 -3.374,-3.368 V 6.742 h -19.731 l 0.012,8.079 c 0.041,0.224 0.06,0.433 0.06,0.64 0,0.208 -0.02,0.423 -0.059,0.637 -0.3,1.581 -1.692,2.731 -3.31,2.731 h -14.28 v 20.57 c 0,1.861 -1.512,3.374 -3.369,3.374 h -8.319 l 0.009,8.232 c 0.14,0.901 -0.081,1.8 -0.623,2.529 L 123.904,76.37 c -0.634,0.853 -1.645,1.361 -2.703,1.361 -1.77,0 -2.566,-1.019 -4.198,-3.325 -0.305,-0.429 -0.629,-0.888 -0.987,-1.371 l -1.375,-1.854 0.672,70.117 c 0,1.85 -1.512,3.362 -3.37,3.362 h -9.578 v 12.847 c 0.005,0.099 0.012,0.153 0.02,0.207 0.005,12.094 0.016,15.471 0.019,16.297 -0.008,0.058 -0.015,0.121 -0.018,0.189 -0.002,0.131 0.005,0.203 0.01,0.269 -0.011,0.419 -1.107,3.398 -6.375,17.714 -2.179,5.921 -5.093,13.838 -8.988,24.443 -0.597,1.624 -2.027,2.203 -3.168,2.203 h -10e-4 c -1.136,0 -2.564,-0.579 -3.16,-2.203 -3.857,-10.504 -6.753,-18.371 -8.926,-24.276 -5.739,-15.592 -6.476,-17.595 -6.442,-17.951 l 0.012,-0.167 0.001,-29.572 h -9.555 c -1.857,0 -3.368,-1.512 -3.368,-3.369 l 10e-4,-69.197 -3.183,4.275 c -0.641,0.865 -1.627,1.36 -2.705,1.36 -1.078,0 -2.063,-0.495 -2.704,-1.359 -4.05,-5.448 -7.178,-9.631 -9.594,-12.861 -7.9,-10.565 -8.051,-10.786 -8.044,-11.836 l 0.001,-0.15 v -8.75 h -8.264 c -1.858,0 -3.37,-1.513 -3.37,-3.374 V 18.835 H 0 c -1.86,0 -3.374,-1.514 -3.374,-3.374 V 6.742 h -19.659 v 8.719 c 0,1.86 -1.512,3.374 -3.369,3.374" /></g><g
           transform="translate(131.3506,144.8701)"
           id="g24"><path
             id="path26"
             style="fill:#000000;fill-opacity:1;fill-rule:nonzero;stroke:none"
             d="m 0,0 c -4.928,0 -8.938,4.01 -8.938,8.938 0,4.93 4.01,8.94 8.938,8.94 4.93,0 8.939,-4.01 8.939,-8.94 C 8.939,4.01 4.93,0 0,0 m 0.001,24.619 c -8.647,0 -15.681,-7.034 -15.681,-15.681 0,-8.646 7.034,-15.68 15.681,-15.68 8.646,0 15.681,7.034 15.681,15.68 0,8.647 -7.035,15.681 -15.681,15.681" /></g></g></g></g></svg>