<?xml version="1.0" encoding="UTF-8" standalone="no"?>
<svg
   xmlns:dc="http://purl.org/dc/elements/1.1/"
   xmlns:cc="http://creativecommons.org/ns#"
   xmlns:rdf="http://www.w3.org/1999/02/22-rdf-syntax-ns#"
   xmlns:svg="http://www.w3.org/2000/svg"
   xmlns="http://www.w3.org/2000/svg"
   viewBox="0 0 176.936 177.33333"
   height="177.33333"
   width="176.936"
   xml:space="preserve"
   id="svg2"
   version="1.1"><metadata
     id="metadata8"><rdf:RDF><cc:Work
         rdf:about=""><dc:format>image/svg+xml</dc:format><dc:type
           rdf:resource="http://purl.org/dc/dcmitype/StillImage" /></cc:Work></rdf:RDF></metadata><defs
     id="defs6"><clipPath
       id="clipPath18"
       clipPathUnits="userSpaceOnUse"><path
         id="path16"
         d="M 0,133 H 132.702 V 0 H 0 Z" /></clipPath><clipPath
       id="clipPath36"
       clipPathUnits="userSpaceOnUse"><path
         id="path34"
         d="M 0,133 H 132.702 V 0 H 0 Z" /></clipPath></defs><g
     transform="matrix(1.3333333,0,0,-1.3333333,0,177.33333)"
     id="g10"><g
       id="g12"><g
         clip-path="url(#clipPath18)"
         id="g14"><path
           id="path20"
           style="fill:none;stroke:#000000;stroke-width:5;stroke-linecap:butt;stroke-linejoin:miter;stroke-miterlimit:10;stroke-dasharray:none;stroke-opacity:1"
           d="m 66.5,2.5 h -64 v 64 h 64 z" /><path
           id="path22"
           style="fill:none;stroke:#000000;stroke-width:5;stroke-linecap:butt;stroke-linejoin:miter;stroke-miterlimit:10;stroke-dasharray:none;stroke-opacity:1"
           d="m 130.202,2.5 h -64 v 64 h 64 z" /><path
           id="path24"
           style="fill:none;stroke:#000000;stroke-width:5;stroke-linecap:butt;stroke-linejoin:miter;stroke-miterlimit:10;stroke-dasharray:none;stroke-opacity:1"
           d="m 98.5,66.5 h -64 v 64 h 64 z" /></g></g><g
       transform="translate(71.5054,94.98)"
       id="g26"><path
         id="path28"
         style="fill:#000000;fill-opacity:1;fill-rule:nonzero;stroke:none"
         d="M 0,0 -5.074,12.252 -10.148,0 Z m 2.332,-5.624 h -14.858 l -2.834,-6.857 h -7.589 l 14.263,32.002 h 7.315 L 12.938,-12.481 H 5.166 Z" /></g><g
       id="g30"><g
         clip-path="url(#clipPath36)"
         id="g32"><g
           transform="translate(40.2373,25.0361)"
           id="g38"><path
             id="path40"
             style="fill:#000000;fill-opacity:1;fill-rule:nonzero;stroke:none"
             d="m 0,0 c 0.99,0.641 1.486,1.631 1.486,2.973 0,2.65 -1.965,3.976 -5.897,3.976 h -8.641 v -7.908 h 8.641 C -2.462,-0.959 -0.99,-0.64 0,0 m -13.052,19.887 v -7.543 h 7.361 c 1.828,0 3.214,0.32 4.16,0.961 0.944,0.639 1.417,1.584 1.417,2.834 0,1.249 -0.473,2.186 -1.417,2.811 -0.946,0.624 -2.332,0.937 -4.16,0.937 z M 7.384,7.201 C 8.419,5.844 8.938,4.176 8.938,2.195 c 0,-2.804 -1.09,-4.961 -3.269,-6.468 -2.18,-1.51 -5.357,-2.264 -9.532,-2.264 h -16.549 v 32.002 h 15.635 c 3.901,0 6.895,-0.747 8.983,-2.24 2.087,-1.495 3.132,-3.52 3.132,-6.08 0,-1.555 -0.374,-2.942 -1.12,-4.161 C 5.471,11.765 4.427,10.805 3.086,10.104 4.915,9.524 6.347,8.557 7.384,7.201" /></g><g
           transform="translate(91.4131,20.0762)"
           id="g42"><path
             id="path44"
             style="fill:#000000;fill-opacity:1;fill-rule:nonzero;stroke:none"
             d="m 0,0 c -2.637,1.417 -4.709,3.384 -6.218,5.897 -1.509,2.515 -2.262,5.356 -2.262,8.527 0,3.169 0.753,6.012 2.262,8.526 1.509,2.514 3.581,4.481 6.218,5.898 2.636,1.417 5.601,2.126 8.892,2.126 2.773,0 5.28,-0.489 7.52,-1.463 2.24,-0.977 4.122,-2.377 5.647,-4.206 l -4.755,-4.39 c -2.164,2.5 -4.846,3.75 -8.046,3.75 -1.982,0 -3.749,-0.436 -5.304,-1.304 C 2.4,22.493 1.188,21.281 0.319,19.728 -0.549,18.173 -0.983,16.405 -0.983,14.424 -0.983,12.442 -0.549,10.675 0.319,9.12 1.188,7.566 2.4,6.354 3.954,5.486 5.509,4.618 7.276,4.183 9.258,4.183 c 3.2,0 5.882,1.265 8.046,3.795 L 22.059,3.589 C 20.534,1.729 18.645,0.312 16.39,-0.663 14.134,-1.638 11.619,-2.126 8.846,-2.126 5.584,-2.126 2.636,-1.417 0,0" /></g></g></g></g></svg>