<?xml version="1.0" encoding="UTF-8" standalone="no"?>
<svg
   xmlns:dc="http://purl.org/dc/elements/1.1/"
   xmlns:cc="http://creativecommons.org/ns#"
   xmlns:rdf="http://www.w3.org/1999/02/22-rdf-syntax-ns#"
   xmlns:svg="http://www.w3.org/2000/svg"
   xmlns="http://www.w3.org/2000/svg"
   viewBox="0 0 163.368 248.68401"
   height="248.68401"
   width="163.368"
   xml:space="preserve"
   id="svg2"
   version="1.1"><metadata
     id="metadata8"><rdf:RDF><cc:Work
         rdf:about=""><dc:format>image/svg+xml</dc:format><dc:type
           rdf:resource="http://purl.org/dc/dcmitype/StillImage" /></cc:Work></rdf:RDF></metadata><defs
     id="defs6"><clipPath
       id="clipPath18"
       clipPathUnits="userSpaceOnUse"><path
         id="path16"
         d="M 0,186.513 H 122.526 V 0 H 0 Z" /></clipPath></defs><g
     transform="matrix(1.3333333,0,0,-1.3333333,0,248.684)"
     id="g10"><g
       id="g12"><g
         clip-path="url(#clipPath18)"
         id="g14"><g
           transform="translate(85.9009,186.5126)"
           id="g20"><path
             id="path22"
             style="fill:#000000;fill-opacity:1;fill-rule:nonzero;stroke:none"
             d="M 0,0 Z" /></g><g
           transform="translate(56.1699,73.5458)"
           id="g24"><path
             id="path26"
             style="fill:#000000;fill-opacity:1;fill-rule:nonzero;stroke:none"
             d="M 0,0 Z" /></g><g
           transform="translate(115.9663,146.8549)"
           id="g28"><path
             id="path30"
             style="fill:#000000;fill-opacity:1;fill-rule:nonzero;stroke:none"
             d="m 0,0 v -117.64 h -19.677 v 16.413 l 0.146,0.199 c 1.005,1.364 1.429,3.006 1.804,4.455 0.301,1.164 0.538,2.021 0.851,2.446 0.308,0.422 1.049,0.908 2.061,1.547 1.79,1.131 3.815,2.411 4.621,4.834 0.797,2.393 -0.033,4.653 -0.764,6.648 -0.374,1.017 -0.759,2.069 -0.759,2.765 0,0.695 0.384,1.743 0.756,2.757 0.734,2.001 1.564,4.263 0.767,6.656 -0.806,2.422 -2.832,3.703 -4.619,4.832 -0.979,0.619 -1.753,1.125 -2.063,1.548 -0.313,0.426 -0.55,1.282 -0.851,2.444 -0.522,2.023 -1.113,4.314 -3.138,5.799 -1.606,1.176 -3.51,1.312 -4.802,1.312 -0.579,0 -1.138,-0.028 -1.676,-0.056 -1.188,-0.06 -2.195,-0.07 -2.663,0.085 -0.526,0.176 -1.235,0.728 -2.179,1.491 -1.704,1.369 -3.63,2.916 -6.274,2.916 -2.646,0 -4.573,-1.55 -6.273,-2.917 -0.961,-0.772 -1.662,-1.317 -2.179,-1.49 -0.465,-0.155 -1.479,-0.146 -2.664,-0.084 -0.559,0.028 -1.107,0.055 -1.676,0.055 -1.291,0 -3.194,-0.136 -4.8,-1.312 -2.027,-1.486 -2.618,-3.776 -3.14,-5.797 -0.302,-1.164 -0.538,-2.02 -0.849,-2.444 -0.313,-0.425 -1.086,-0.932 -2.064,-1.55 -1.787,-1.128 -3.812,-2.408 -4.62,-4.832 -0.797,-2.394 0.032,-4.654 0.764,-6.649 0.444,-1.21 0.759,-2.116 0.759,-2.764 0,-0.649 -0.315,-1.555 -0.759,-2.765 -0.732,-1.995 -1.561,-4.255 -0.764,-6.649 0.807,-2.421 2.831,-3.701 4.618,-4.831 0.978,-0.617 1.75,-1.122 2.065,-1.549 0.312,-0.426 0.549,-1.283 0.85,-2.446 0.374,-1.448 0.798,-3.089 1.805,-4.455 l 0.146,-0.198 v -16.414 h -52.911 V 33.099 h 77.054 V 2.908 C -33.097,1.304 -31.793,0 -30.189,0 Z m -27.282,28.985 23.17,-23.17 h -23.17 z m 5.716,-119.675 c -0.998,-1.362 -1.419,-2.991 -1.791,-4.428 -0.235,-0.915 -0.487,-1.848 -0.754,-2.309 l -0.169,-0.29 -0.328,-0.068 c -0.507,-0.106 -1.426,-0.085 -2.444,-0.033 -0.54,0.026 -1.1,0.054 -1.683,0.054 -1.237,0 -2.224,-0.137 -3.108,-0.431 -1.554,-0.517 -2.845,-1.555 -3.984,-2.472 -1.215,-0.981 -1.972,-1.529 -2.5,-1.624 l -0.132,-0.024 -0.132,0.024 c -0.527,0.094 -1.283,0.643 -2.495,1.622 -1.148,0.922 -2.437,1.958 -3.988,2.474 -0.884,0.294 -1.871,0.431 -3.108,0.431 -0.582,0 -1.141,-0.028 -1.682,-0.054 -1.02,-0.051 -1.936,-0.072 -2.444,0.033 l -0.328,0.067 -0.168,0.289 c -0.263,0.45 -0.506,1.34 -0.752,2.291 -0.376,1.456 -0.795,3.083 -1.795,4.448 -0.988,1.349 -2.4,2.24 -3.647,3.026 -0.932,0.59 -1.73,1.111 -2.066,1.528 l -0.172,0.213 0.006,0.274 c 0.011,0.543 0.334,1.469 0.724,2.534 0.528,1.437 1.12,3.048 1.12,4.781 0,1.726 -0.59,3.336 -1.111,4.757 l 0.701,0.268 -0.704,-0.259 c -0.379,1.031 -0.72,2.002 -0.732,2.55 l -0.005,0.274 0.171,0.213 c 0.307,0.381 0.991,0.849 2.068,1.528 1.246,0.787 2.658,1.678 3.648,3.027 0.995,1.357 1.415,2.985 1.787,4.422 0.253,0.976 0.496,1.866 0.759,2.316 l 0.167,0.287 0.324,0.069 c 0.5,0.104 1.42,0.085 2.446,0.033 0.581,-0.028 1.122,-0.054 1.685,-0.054 1.236,0 2.224,0.137 3.108,0.431 1.558,0.518 2.848,1.558 3.987,2.474 1.302,1.048 2.007,1.557 2.506,1.628 l 0.101,0.014 0.1,-0.013 c 0.532,-0.069 1.242,-0.577 2.536,-1.618 1.152,-0.927 2.443,-1.966 4.001,-2.484 0.885,-0.295 1.872,-0.432 3.108,-0.432 0.565,0 1.108,0.027 1.632,0.052 1.145,0.057 2.025,0.073 2.505,-0.033 l 0.32,-0.071 0.165,-0.283 c 0.269,-0.46 0.521,-1.395 0.757,-2.312 0.371,-1.436 0.792,-3.065 1.79,-4.427 0.986,-1.345 2.399,-2.238 3.647,-3.026 0.951,-0.603 1.735,-1.118 2.066,-1.528 l 0.172,-0.213 -0.006,-0.274 c -0.011,-0.542 -0.333,-1.465 -0.721,-2.527 -0.531,-1.444 -1.123,-3.056 -1.123,-4.788 0,-1.727 0.591,-3.34 1.112,-4.763 0.38,-1.033 0.721,-2.004 0.732,-2.553 l 0.006,-0.274 -0.172,-0.213 c -0.33,-0.409 -1.112,-0.923 -2.025,-1.502 -1.287,-0.812 -2.7,-1.703 -3.688,-3.052 m -3.927,-48.002 -11.42,7.166 c -0.939,0.588 -2.153,0.588 -3.093,0 l -11.42,-7.166 v 34.999 l 0.727,0.022 c 0.384,0.012 0.76,0.026 1.125,0.044 1.178,0.062 2.194,0.071 2.662,-0.084 0.522,-0.175 1.227,-0.724 2.167,-1.479 1.712,-1.378 3.638,-2.929 6.286,-2.929 2.647,0 4.574,1.551 6.273,2.919 0.948,0.762 1.657,1.314 2.178,1.487 0.479,0.157 1.486,0.146 2.664,0.086 0.364,-0.018 0.74,-0.034 1.121,-0.044 l 0.73,-0.019 z m -87.566,177.606 c -1.603,0 -2.907,-1.305 -2.907,-2.908 v -156.554 c 0,-1.603 1.304,-2.908 2.907,-2.908 h 55.817 v -20.492 c 0,-1.057 0.575,-2.032 1.501,-2.544 0.928,-0.511 2.058,-0.48 2.952,0.08 l 14.33,8.99 14.329,-8.99 c 0.878,-0.549 2.045,-0.582 2.954,-0.081 0.925,0.512 1.499,1.487 1.499,2.545 v 20.492 H 2.908 c 1.603,0 2.907,1.305 2.907,2.908 L 5.815,2.908 6.56,3.032 5.81,3.004 5.806,3.097 C 5.796,3.224 5.785,3.348 5.76,3.472 5.735,3.597 5.699,3.719 5.659,3.837 5.583,4.042 5.535,4.154 5.479,4.263 5.415,4.385 5.347,4.489 5.273,4.592 5.138,4.771 5.057,4.871 4.965,4.963 l -33.099,33.099 c -0.092,0.092 -0.192,0.173 -0.295,0.252 -0.18,0.131 -0.282,0.199 -0.39,0.255 l -0.097,0.055 c -0.035,0.014 -0.146,0.06 -0.257,0.103 -0.194,0.065 -0.311,0.101 -0.427,0.126 l -0.023,0.004 c -0.124,0.025 -0.251,0.038 -0.378,0.047 l -0.064,0.754 -0.097,-0.746 z" /></g><g
           transform="translate(67.9028,152.6703)"
           id="g32"><path
             id="path34"
             style="fill:#000000;fill-opacity:1;fill-rule:nonzero;stroke:none"
             d="m 0,0 h -47.123 c -1.603,0 -2.907,-1.304 -2.907,-2.908 0,-1.603 1.304,-2.907 2.907,-2.907 H 0 c 1.604,0 2.908,1.304 2.908,2.907 C 2.908,-1.304 1.604,0 0,0" /></g><g
           transform="translate(101.4102,134.2079)"
           id="g36"><path
             id="path38"
             style="fill:#000000;fill-opacity:1;fill-rule:nonzero;stroke:none"
             d="m 0,0 h -80.63 c -1.603,0 -2.908,-1.304 -2.908,-2.908 0,-1.603 1.305,-2.907 2.908,-2.907 H 0 c 1.604,0 2.908,1.304 2.908,2.907 C 2.908,-1.304 1.604,0 0,0" /></g><g
           transform="translate(86.7798,115.7455)"
           id="g40"><path
             id="path42"
             style="fill:#000000;fill-opacity:1;fill-rule:nonzero;stroke:none"
             d="m 0,0 h -66 c -1.603,0 -2.907,-1.304 -2.907,-2.908 0,-1.603 1.304,-2.907 2.907,-2.907 H 0 c 1.604,0 2.908,1.304 2.908,2.907 C 2.908,-1.304 1.604,0 0,0" /></g></g></g></g></svg>