<svg xmlns="http://www.w3.org/2000/svg" width="29" height="28" viewBox="0 0 29 28"><g><g><path d="M28.71 12.075c-.602 2.58-1.991 4.927-4.017 6.786l-10.28 9.285L4.304 18.86C2.28 17.002.89 14.655.29 12.075-.128 10.286.009 9.19.042 8.981.465 4.262 3.765.839 7.892.839c2.707 0 5.123 1.468 6.527 3.9 1.417-2.401 3.936-3.9 6.686-3.9 4.129 0 7.428 3.424 7.851 8.143.033.208.17 1.305-.247 3.093zm-.855-2.917c-.37-4.188-3.206-7.189-6.75-7.189-2.676 0-5.1 1.666-6.175 4.245l-.514 1.232-.513-1.232c-1.093-2.619-3.395-4.245-6.01-4.245-3.544 0-6.379 3-6.742 7.135l-.008.057c0 .006-.163.962.232 2.655.55 2.356 1.822 4.502 3.68 6.208l9.364 8.602 9.527-8.605c1.855-1.701 3.128-3.848 3.677-6.204.395-1.693.233-2.65.232-2.66z"/></g></g></svg>