<?xml version="1.0" encoding="UTF-8" ?>
<!DOCTYPE svg PUBLIC "-//W3C//DTD SVG 1.1//EN" "http://www.w3.org/Graphics/SVG/1.1/DTD/svg11.dtd">
<svg width="45pt" height="32pt" viewBox="0 0 45 32" version="1.1" xmlns="http://www.w3.org/2000/svg">
<g id="#ffffffff">
<path fill="#ffffff" opacity="1.00" d=" M 15.78 0.00 L 29.00 0.00 C 33.13 0.43 37.52 -0.08 41.44 1.49 C 45.41 3.98 44.54 9.39 45.00 13.42 L 45.00 18.52 C 44.52 22.73 45.46 28.75 40.80 30.86 C 36.15 32.03 31.29 31.77 26.54 32.00 L 15.69 32.00 C 11.87 31.66 7.94 31.87 4.21 30.83 C -0.09 29.05 0.50 23.65 0.00 19.84 L 0.00 12.46 C 0.50 8.57 -0.17 3.00 4.22 1.14 C 7.98 0.11 11.93 0.32 15.78 0.00 M 18.06 9.23 C 18.06 13.74 18.06 18.26 18.06 22.77 C 21.92 20.52 25.78 18.27 29.62 16.00 C 25.78 13.73 21.92 11.48 18.06 9.23 Z" />
</g>
</svg>
