<?xml version="1.0" encoding="UTF-8" standalone="no"?>
<svg
   xmlns:dc="http://purl.org/dc/elements/1.1/"
   xmlns:cc="http://creativecommons.org/ns#"
   xmlns:rdf="http://www.w3.org/1999/02/22-rdf-syntax-ns#"
   xmlns:svg="http://www.w3.org/2000/svg"
   xmlns="http://www.w3.org/2000/svg"
   viewBox="0 0 8.9722137 8.9715595"
   height="8.9715595"
   width="8.9722137"
   xml:space="preserve"
   id="svg2"
   version="1.1"><metadata
     id="metadata8"><rdf:RDF><cc:Work
         rdf:about=""><dc:format>image/svg+xml</dc:format><dc:type
           rdf:resource="http://purl.org/dc/dcmitype/StillImage" /></cc:Work></rdf:RDF></metadata><defs
     id="defs6"><clipPath
       id="clipPath18"
       clipPathUnits="userSpaceOnUse"><path
         id="path16"
         d="M 0,6.729 H 6.729 V 0 H 0 Z" /></clipPath></defs><g
     transform="matrix(1.3333333,0,0,-1.3333333,0,8.97156)"
     id="g10"><g
       id="g12"><g
         clip-path="url(#clipPath18)"
         id="g14"><g
           transform="translate(6.4547,1.1371)"
           id="g20"><path
             id="path22"
             style="fill:#373738;fill-opacity:1;fill-rule:nonzero;stroke:none"
             d="m 0,0 -0.339,-0.565 c -0.075,-0.128 -0.197,-0.222 -0.34,-0.263 -0.684,-0.188 -1.88,-0.032 -3.689,1.777 -1.809,1.81 -1.965,3.005 -1.777,3.69 0.041,0.143 0.135,0.265 0.263,0.34 l 0.565,0.338 c 0.078,0.047 0.179,0.025 0.23,-0.051 L -4.598,4.531 -4.187,3.915 C -4.138,3.84 -4.154,3.741 -4.224,3.686 L -4.73,3.292 C -4.884,3.174 -4.928,2.961 -4.833,2.792 l 0.04,-0.073 c 0.143,-0.26 0.319,-0.585 0.964,-1.23 0.646,-0.645 0.97,-0.822 1.231,-0.964 l 0.073,-0.04 c 0.169,-0.095 0.382,-0.051 0.5,0.103 l 0.393,0.506 c 0.055,0.07 0.154,0.086 0.229,0.037 L -0.052,0.229 C 0.024,0.179 0.047,0.078 0,0 M 0.073,0.415 -1.279,1.316 C -1.45,1.43 -1.68,1.393 -1.807,1.23 L -2.2,0.725 C -2.251,0.658 -2.343,0.638 -2.416,0.679 L -2.491,0.72 C -2.739,0.855 -3.048,1.024 -3.67,1.646 -4.292,2.269 -4.461,2.578 -4.596,2.826 L -4.637,2.9 c -0.042,0.074 -0.023,0.166 0.044,0.217 l 0.506,0.393 c 0.162,0.127 0.199,0.357 0.086,0.529 L -4.902,5.39 C -5.019,5.564 -5.251,5.617 -5.431,5.509 L -5.996,5.169 C -6.174,5.065 -6.304,4.896 -6.36,4.698 -6.563,3.956 -6.41,2.677 -4.525,0.792 c 1.499,-1.499 2.615,-1.902 3.382,-1.902 0.177,-10e-4 0.352,0.022 0.523,0.068 0.199,0.056 0.368,0.186 0.472,0.363 l 0.339,0.565 C 0.3,0.066 0.247,0.299 0.073,0.415" /></g><g
           transform="translate(6.4547,1.1371)"
           id="g24"><path
             id="path26"
             style="fill:none;stroke:#444443;stroke-width:0.053;stroke-linecap:butt;stroke-linejoin:miter;stroke-miterlimit:10;stroke-dasharray:none;stroke-opacity:1"
             d="m 0,0 -0.339,-0.565 c -0.075,-0.128 -0.197,-0.222 -0.34,-0.263 -0.684,-0.188 -1.88,-0.032 -3.689,1.777 -1.809,1.81 -1.965,3.005 -1.777,3.69 0.041,0.143 0.135,0.265 0.263,0.34 l 0.565,0.338 c 0.078,0.047 0.179,0.025 0.23,-0.051 L -4.598,4.531 -4.187,3.915 C -4.138,3.84 -4.154,3.741 -4.224,3.686 L -4.73,3.292 C -4.884,3.174 -4.928,2.961 -4.833,2.792 l 0.04,-0.073 c 0.143,-0.26 0.319,-0.585 0.964,-1.23 0.646,-0.645 0.97,-0.822 1.231,-0.964 l 0.073,-0.04 c 0.169,-0.095 0.382,-0.051 0.5,0.103 l 0.393,0.506 c 0.055,0.07 0.154,0.086 0.229,0.037 L -0.052,0.229 C 0.024,0.179 0.047,0.078 0,0 Z M 0.073,0.415 -1.279,1.316 C -1.45,1.43 -1.68,1.393 -1.807,1.23 L -2.2,0.725 C -2.251,0.658 -2.343,0.638 -2.416,0.679 L -2.491,0.72 C -2.739,0.855 -3.048,1.024 -3.67,1.646 -4.292,2.269 -4.461,2.578 -4.596,2.826 L -4.637,2.9 c -0.042,0.074 -0.023,0.166 0.044,0.217 l 0.506,0.393 c 0.162,0.127 0.199,0.357 0.086,0.529 L -4.902,5.39 C -5.019,5.564 -5.251,5.617 -5.431,5.509 L -5.996,5.169 C -6.174,5.065 -6.304,4.896 -6.36,4.698 -6.563,3.956 -6.41,2.677 -4.525,0.792 c 1.499,-1.499 2.615,-1.902 3.382,-1.902 0.177,-10e-4 0.352,0.022 0.523,0.068 0.199,0.056 0.368,0.186 0.472,0.363 l 0.339,0.565 C 0.3,0.066 0.247,0.299 0.073,0.415 Z" /></g></g></g></g></svg>