<?xml version="1.0"?>
<!--Icons from directory ""-->
<svg xmlns="http://www.w3.org/2000/svg" width="300" height="600" viewBox="0 0 300 600"><svg height="21" viewBox="0 0 551.13 551.13" width="21" id="minus-in-circle" y="0"><path d="M275.565 0C123.621 0 0 123.621 0 275.565S123.621 551.13 275.565 551.13 551.13 427.509 551.13 275.565 427.509 0 275.565 0zm0 516.685c-132.955 0-241.119-108.164-241.119-241.119S142.61 34.446 275.565 34.446s241.12 108.164 241.12 241.119-108.165 241.12-241.12 241.12z"/><path d="M137.783 258.342h275.565v34.446H137.783z"/></svg><svg height="21" viewBox="0 0 551.13 551.13" width="21" id="plus-in-circle" y="300"><path d="M275.565 0C123.621 0 0 123.621 0 275.565S123.621 551.13 275.565 551.13 551.13 427.509 551.13 275.565 427.509 0 275.565 0zm0 516.685c-132.955 0-241.119-108.164-241.119-241.119S142.61 34.446 275.565 34.446s241.12 108.164 241.12 241.119-108.165 241.12-241.12 241.12z"/><path d="M292.788 137.783h-34.446v120.56h-120.56v34.446h120.56v120.56h34.446v-120.56h120.56v-34.446h-120.56z"/></svg></svg>
