<?xml version="1.0" encoding="UTF-8" standalone="no"?>
<svg
   xmlns:dc="http://purl.org/dc/elements/1.1/"
   xmlns:cc="http://creativecommons.org/ns#"
   xmlns:rdf="http://www.w3.org/1999/02/22-rdf-syntax-ns#"
   xmlns:svg="http://www.w3.org/2000/svg"
   xmlns="http://www.w3.org/2000/svg"
   viewBox="0 0 6.6252799 9.4595337"
   height="9.4595337"
   width="6.6252799"
   xml:space="preserve"
   id="svg2"
   version="1.1"><metadata
     id="metadata8"><rdf:RDF><cc:Work
         rdf:about=""><dc:format>image/svg+xml</dc:format><dc:type
           rdf:resource="http://purl.org/dc/dcmitype/StillImage" /></cc:Work></rdf:RDF></metadata><defs
     id="defs6"><clipPath
       id="clipPath18"
       clipPathUnits="userSpaceOnUse"><path
         id="path16"
         d="M 0,7.095 H 4.969 V 0 H 0 Z" /></clipPath></defs><g
     transform="matrix(1.3333333,0,0,-1.3333333,0,9.4595333)"
     id="g10"><g
       id="g12"><g
         clip-path="url(#clipPath18)"
         id="g14"><g
           transform="translate(2.5077,3.9852)"
           id="g20"><path
             id="path22"
             style="fill:#373738;fill-opacity:1;fill-rule:nonzero;stroke:none"
             d="m 0,0 c -0.357,0 -0.648,0.291 -0.648,0.648 0,0.357 0.291,0.647 0.648,0.647 0.357,0 0.648,-0.29 0.648,-0.647 C 0.648,0.291 0.357,0 0,0 m 0,1.555 c -0.5,0 -0.907,-0.407 -0.907,-0.907 0,-0.5 0.407,-0.907 0.907,-0.907 0.5,0 0.907,0.407 0.907,0.907 0,0.5 -0.407,0.907 -0.907,0.907" /></g><g
           transform="translate(4.2621,3.0223)"
           id="g24"><path
             id="path26"
             style="fill:#373738;fill-opacity:1;fill-rule:nonzero;stroke:none"
             d="m 0,0 -1.777,-2.567 -1.781,2.571 c -0.673,0.898 -0.577,2.374 0.207,3.158 0.42,0.42 0.979,0.651 1.574,0.651 0.594,0 1.153,-0.231 1.573,-0.651 C 0.58,2.378 0.677,0.902 0,0 M -0.021,3.345 C -0.49,3.814 -1.114,4.072 -1.777,4.072 -2.441,4.072 -3.065,3.814 -3.534,3.345 -4.403,2.476 -4.511,0.842 -3.768,-0.147 l 1.991,-2.875 1.987,2.871 c 0.746,0.993 0.638,2.627 -0.231,3.496" /></g></g></g></g></svg>