<svg xmlns="http://www.w3.org/2000/svg" viewBox="0 0 222.89 68.01"><defs><style>.cls-1{fill:#fff;}.cls-2{fill:#fff;}.cls-3{fill:#404040;}</style></defs><title>Ресурс 15</title><g id="Слой_2" data-name="Слой 2"><g id="Слой_1-2" data-name="Слой 1"><rect class="cls-1" y="11.4" width="35.38" height="35.38"/><path class="cls-2" d="M36.76,11.4H53.48a23.53,23.53,0,0,1,10.31,2.17,16.4,16.4,0,0,1,7,6.17,17.38,17.38,0,0,1,2.47,9.35,17.38,17.38,0,0,1-2.47,9.35,16.4,16.4,0,0,1-7,6.17,23.53,23.53,0,0,1-10.31,2.17H36.76ZM53.08,39c5.23,0,10.06-3.43,10.06-9.95s-4.91-10-10.06-10H46.76V39Z"/><path class="cls-2" d="M83.72,42.57q-4.29-4.22-4.29-11.94V11.4h9.81V30.33q0,8.33,6.59,8.32t6.54-8.32V11.4H112V30.63q0,7.73-4.28,11.94t-12,4.21Q88,46.78,83.72,42.57Z"/><path class="cls-2" d="M86.39,6.85A3.78,3.78,0,0,1,85.25,4a3.84,3.84,0,0,1,1.14-2.88,4.23,4.23,0,0,1,5.71,0A3.83,3.83,0,0,1,93.23,4,3.77,3.77,0,0,1,92.1,6.85a4.31,4.31,0,0,1-5.71,0Z"/><path class="cls-2" d="M99.52,6.85A3.78,3.78,0,0,1,98.38,4a3.84,3.84,0,0,1,1.14-2.88,4.21,4.21,0,0,1,5.7,0A3.84,3.84,0,0,1,106.36,4a3.78,3.78,0,0,1-1.14,2.86,4.3,4.3,0,0,1-5.7,0Z"/><path class="cls-2" d="M133.69,37.38h-5.46v9.4h-10V11.4h16.17A20.21,20.21,0,0,1,142.73,13a12,12,0,0,1,7.38,11.5,12.4,12.4,0,0,1-1.79,6.7,12.21,12.21,0,0,1-5.13,4.47l7.63,11.12H140.1Zm4.75-16.73a6.92,6.92,0,0,0-4.65-1.36h-5.56V29.65h5.56a7,7,0,0,0,4.65-1.34A4.77,4.77,0,0,0,140,24.49,4.83,4.83,0,0,0,138.44,20.65Z"/><path class="cls-2" d="M184.11,39v7.74H156.29V11.4H184v7.73H166.2v6h17.87l0,7.48H166.2v6.47Z"/><path class="cls-2" d="M205.76,37.38H200.3v9.4h-10V11.4h16.18A20.13,20.13,0,0,1,214.8,13a12,12,0,0,1,7.38,11.5,11.76,11.76,0,0,1-6.92,11.17l7.63,11.12H212.18Zm4.75-16.73a6.88,6.88,0,0,0-4.65-1.36H200.3V29.65h5.56a7,7,0,0,0,4.65-1.34,4.78,4.78,0,0,0,1.57-3.82A4.84,4.84,0,0,0,210.51,20.65Z"/><path class="cls-3" d="M28.83,22.31H6.54v7.84h5v5.72H23.79V30.15h5ZM8.67,28V24.44h8V28h-8Zm13,5.71h-8V30.15h8Zm5-5.71h-8V24.44h8Z"/><path class="cls-2" d="M66.88,65.77V59H68V61.8h1.13l1-1.7a4.75,4.75,0,0,1,.41-.6,2,2,0,0,1,.39-.38,1.45,1.45,0,0,1,.4-.19,2.26,2.26,0,0,1,.47,0l.24,0,.22.06-.2,1a.5.5,0,0,0-.13,0l-.14,0a.64.64,0,0,0-.42.15,2.57,2.57,0,0,0-.49.63L70,62.17l2.44,3.6H71.24l-2.13-3.08H68v3.08Z"/><path class="cls-2" d="M73.76,65.93l-.35,0a1.47,1.47,0,0,1-.3-.08l.22-1,.14,0h.14a.6.6,0,0,0,.27-.06.69.69,0,0,0,.25-.24,2.45,2.45,0,0,0,.24-.53c.08-.23.16-.54.25-.92l.42-2c.13-.67.27-1.36.41-2.08h3.74v6.74H78.11V59.92H76.27c-.12.57-.22,1.13-.32,1.69s-.21,1.1-.33,1.65a10.83,10.83,0,0,1-.35,1.31,3.29,3.29,0,0,1-.41.82,1.25,1.25,0,0,1-.48.42A1.52,1.52,0,0,1,73.76,65.93Z"/><path class="cls-2" d="M87.45,59v6.74h-1V62.58a10.85,10.85,0,0,1,0-1.12q0-.59.09-1.11h0l-.78,1.44-2.5,4H82.18V59h1v3.16a11.43,11.43,0,0,1-.05,1.15c0,.41-.06.78-.09,1.12h0L83.87,63l2.47-4Z"/><path class="cls-2" d="M90.44,65.77V59h1.08v2.75h3.22V59h1.08v6.74H94.74V62.71H91.52v3.06Z"/><path class="cls-2" d="M98.81,65.77V59h1.08V61.8H101l1-1.7a6,6,0,0,1,.42-.6,2,2,0,0,1,.39-.38,1.33,1.33,0,0,1,.4-.19,2.26,2.26,0,0,1,.47,0l.24,0,.22.06-.2,1-.13,0-.14,0a.64.64,0,0,0-.42.15,2.57,2.57,0,0,0-.49.63l-.91,1.5,2.44,3.6h-1.16L101,62.69H99.89v3.08Z"/><path class="cls-2" d="M106.21,65.77V59h4.24v.86h-3.16v2H110v.82h-2.67v2.25h3.28v.86Z"/><path class="cls-2" d="M113,65.77V59h2.3a5.32,5.32,0,0,1,1.1.11,2.46,2.46,0,0,1,.86.34,1.7,1.7,0,0,1,.56.63,2.15,2.15,0,0,1,.2,1,2.18,2.18,0,0,1-.2,1,1.76,1.76,0,0,1-.57.67,2.72,2.72,0,0,1-.86.39,4.07,4.07,0,0,1-1.09.13h-1.22v2.55Zm1.08-3.33h1.14a2.21,2.21,0,0,0,1.32-.32,1.16,1.16,0,0,0,.43-1,1,1,0,0,0-.44-1,2.46,2.46,0,0,0-1.33-.28h-1.12Z"/><path class="cls-2" d="M123,65.93v-1a3.9,3.9,0,0,1-2.27-.69,2.49,2.49,0,0,1,0-3.69,3.76,3.76,0,0,1,2.27-.69v-.95h.92v.95a3.81,3.81,0,0,1,2.28.69,2.47,2.47,0,0,1,0,3.69,4,4,0,0,1-2.28.69v1Zm-2.08-3.57a1.52,1.52,0,0,0,.54,1.26,2.46,2.46,0,0,0,1.54.47V60.65a2.46,2.46,0,0,0-1.54.46A1.52,1.52,0,0,0,120.87,62.36Zm5.08,0a1.52,1.52,0,0,0-.54-1.25,2.46,2.46,0,0,0-1.54-.46v3.44a2.46,2.46,0,0,0,1.54-.47A1.52,1.52,0,0,0,126,62.36Z"/><path class="cls-2" d="M128.2,65.77,130.61,59h1.22l2.42,6.74H133.1l-.62-1.9h-2.56l-.63,1.9Zm2.3-3.67-.31,1h2l-.31-1c-.12-.37-.24-.74-.34-1.1s-.22-.72-.34-1.09h0l-.34,1.1C130.74,61.37,130.62,61.73,130.5,62.1Z"/><path class="cls-2" d="M138.8,65.93a3.35,3.35,0,0,1-1.28-.24,2.91,2.91,0,0,1-1-.68,3.13,3.13,0,0,1-.67-1.1,4.27,4.27,0,0,1-.24-1.49,4.07,4.07,0,0,1,.25-1.48,3.42,3.42,0,0,1,.69-1.12,2.85,2.85,0,0,1,1-.7,3.55,3.55,0,0,1,1.31-.24,2.57,2.57,0,0,1,1.16.26,3.07,3.07,0,0,1,.85.6l-.61.66a2.34,2.34,0,0,0-.61-.45,1.75,1.75,0,0,0-.78-.16,2,2,0,0,0-1.6.69,2.8,2.8,0,0,0-.6,1.91,3,3,0,0,0,.58,1.93,1.93,1.93,0,0,0,1.57.7,2.08,2.08,0,0,0,.89-.19,2.53,2.53,0,0,0,.71-.53l.6.65a3.18,3.18,0,0,1-1,.73A3.1,3.1,0,0,1,138.8,65.93Z"/><path class="cls-2" d="M142.15,65.77,144.56,59h1.22l2.42,6.74h-1.15l-.62-1.9h-2.56l-.63,1.9Zm2.3-3.67-.31,1h2l-.31-1c-.12-.37-.24-.74-.34-1.1s-.22-.72-.34-1.09h-.05c-.12.38-.24.75-.34,1.1S144.57,61.73,144.45,62.1Z"/><path class="cls-2" d="M150.33,68h-.93l-.1-2.45v-.7h.35a.71.71,0,0,0,.24-.2,2.62,2.62,0,0,0,.24-.41,5.58,5.58,0,0,0,.24-.7c.09-.29.17-.65.26-1.07s.13-.62.18-.88l.15-.8.15-.82c0-.28.11-.6.17-.95h3.82v5.83H156v.7L155.9,68H155V65.77h-4.65Zm1.27-5.36a6.87,6.87,0,0,1-.75,2.21H154V59.92h-1.9c-.05.26-.1.5-.14.72s-.08.44-.11.64l-.12.65C151.7,62.15,151.65,62.39,151.6,62.65Z"/></g></g></svg>