<svg width="0" height="0" class="hidden">
  <symbol viewBox="0 0 551.13 551.13" xmlns="http://www.w3.org/2000/svg" id="plus-in-circle">
    <path d="M275.565 0C123.621 0 0 123.621 0 275.565S123.621 551.13 275.565 551.13 551.13 427.509 551.13 275.565 427.509 0 275.565 0zm0 516.685c-132.955 0-241.119-108.164-241.119-241.119S142.61 34.446 275.565 34.446s241.12 108.164 241.12 241.119-108.165 241.12-241.12 241.12z"></path>
    <path d="M292.788 137.783h-34.446v120.56h-120.56v34.446h120.56v120.56h34.446v-120.56h120.56v-34.446h-120.56z"></path>
  </symbol>
  <symbol viewBox="0 0 551.13 551.13" xmlns="http://www.w3.org/2000/svg" id="minus-in-circle">
    <path d="M275.565 0C123.621 0 0 123.621 0 275.565S123.621 551.13 275.565 551.13 551.13 427.509 551.13 275.565 427.509 0 275.565 0zm0 516.685c-132.955 0-241.119-108.164-241.119-241.119S142.61 34.446 275.565 34.446s241.12 108.164 241.12 241.119-108.165 241.12-241.12 241.12z"></path>
    <path d="M137.783 258.342h275.565v34.446H137.783z"></path>
  </symbol>
</svg>