<?xml version="1.0" encoding="UTF-8" ?>
<!DOCTYPE svg PUBLIC "-//W3C//DTD SVG 1.1//EN" "http://www.w3.org/Graphics/SVG/1.1/DTD/svg11.dtd">
<svg width="18pt" height="18pt" viewBox="0 0 18 18" version="1.1" xmlns="http://www.w3.org/2000/svg">
<g id="#626365d4">
<path fill="#626365" opacity="0.83" d=" M 0.00 0.00 L 1.45 0.00 C 3.99 2.45 6.36 5.08 9.00 7.42 C 11.65 5.08 14.00 2.42 16.58 0.00 L 18.00 0.00 L 18.00 1.45 C 15.55 3.99 12.92 6.36 10.58 9.00 C 12.91 11.65 15.57 14.00 18.00 16.57 L 18.00 18.00 L 16.55 18.00 C 14.00 15.55 11.64 12.90 8.98 10.58 C 6.36 12.94 3.99 15.56 1.43 18.00 L 0.00 18.00 L 0.00 16.55 C 2.45 14.01 5.09 11.64 7.42 8.99 C 5.08 6.35 2.43 3.99 0.00 1.43 L 0.00 0.00 Z" />
</g>
</svg>
